<svg width="63" height="63" viewBox="0 0 63 63" fill="none" xmlns="http://www.w3.org/2000/svg">
<path d="M50.0801 5.04492H12.9199C5.7957 5.04492 0 10.8406 0 17.9648V38.753C0 45.8773 5.7957 51.673 12.9199 51.673H14.8372L19.3309 57.374C19.6813 57.8181 20.2153 58.0772 20.7805 58.0772C21.3457 58.0772 21.8802 57.8181 22.2301 57.374L26.7238 51.673H50.0801C57.2043 51.673 63 45.8773 63 38.753V17.9648C63 10.8406 57.2043 5.04492 50.0801 5.04492V5.04492ZM34.729 33.4361V47.9816H28.271V33.4361C28.271 32.4166 27.4447 31.5904 26.4253 31.5904H3.69141V25.1323H26.4253C27.4447 25.1323 28.271 24.3061 28.271 23.2866V8.73633H34.729V23.2866C34.729 24.3061 35.5553 25.1323 36.5747 25.1323H59.3086V31.5904H36.5747C35.5553 31.5904 34.729 32.4166 34.729 33.4361ZM38.4204 8.73633H48.5151L38.4204 18.831V8.73633ZM24.5796 18.831L14.4849 8.73633H24.5796V18.831ZM38.4204 37.8922L48.5098 47.9816H38.4204V37.8922ZM59.3086 17.9648V21.4409H41.0304L53.1937 9.27802C56.7544 10.5585 59.3086 13.9682 59.3086 17.9648ZM9.80626 9.27802L21.9696 21.4409H3.69141V17.9648C3.69141 13.9682 6.24559 10.5585 9.80626 9.27802ZM3.69141 38.753V35.2818H21.9696L9.8101 47.4413C6.24703 46.1618 3.69141 42.7511 3.69141 38.753ZM24.3791 48.6847L20.7805 53.25L17.1823 48.6847C16.8319 48.2406 16.2979 47.9816 15.7327 47.9816H14.4902L24.5796 37.8922V48.4723C24.5084 48.5377 24.4397 48.6074 24.3791 48.6847ZM53.1899 47.4413L41.0304 35.2818H59.3086V38.753C59.3086 42.7511 56.753 46.1618 53.1899 47.4413Z" fill="white"/>
</svg>
