<svg xmlns="http://www.w3.org/2000/svg" xmlns:xlink="http://www.w3.org/1999/xlink" viewBox="0 0 30 30"><defs><path id="ciwla" d="M880.459 1286.45c.834.055 1.688.16 2.526.146 0 .654.002 1.309 0 1.961-.01 1.954-.028 3.92-.1 5.873-.022.574.023 1.78-.045 2.74-1.082.004-2.172.118-3.255.147-.044.002-.044.069 0 .07 1.072.009 2.183.031 3.248-.114-.036.445-.099.828-.208 1.056-.007.015-.016.026-.023.04-3.67.047-7.337.178-11.002.374-.043.002-.044.069 0 .067 3.64-.138 7.28-.228 10.92-.297-.658 1.188-1.84 1.739-3.044 2.111-3.776-.074-7.544-.04-11.322.051-1.907.047-3.81.052-5.717.06-1.74.007-4.522.342-5.95-.878-2.987-2.553-1.733-9.175-1.77-12.68-.04-3.744-.045-7.494-.123-11.237.044-.016.082-.049.082-.103-.005-4.42 10.497-2.973 13.203-3.01 2.882-.04 10.507-1.236 13.596 1.047-2.93-.57-5.907-.616-8.882-.273-.063.007-.064.106 0 .1 3.097-.32 6.112-.13 9.16.4.373.333.664.729.843 1.203-.868-.114-1.768-.096-2.636-.03-.065.006-.066.106 0 .103.901-.033 1.787.022 2.685.059.008.023.018.043.025.066.009.03.024.052.039.074a.18.18 0 0 0-.01.073c.02.329.03.66.048.988-.928-.1-1.885-.023-2.805.103-.06.008-.046.114.014.106.937-.113 1.857-.102 2.796-.101.033.636.069 1.271.093 1.908-.006-.003-.01-.008-.018-.01-.823-.095-1.666-.093-2.494-.13-.062-.003-.06.09 0 .094.827.057 1.665.155 2.494.153.01 0 .014-.005.022-.008.065 1.713.104 3.43.121 5.148-2.327-.551-4.754-.642-7.128-.399-.065.007-.067.11 0 .104 2.423-.185 4.742 0 7.13.428.007.817.011 1.634.012 2.45-.83-.104-1.69-.096-2.526-.132-.062-.002-.061.094 0 .098zm2.595-10.8c0-.01-.005-.018-.008-.028a.221.221 0 0 0 .087-.248c-.554-2.142-1.995-3.053-4.152-3.229-4.003-.324-8.212.131-12.227.212-3.151.064-7.22-.512-10.255.436-1.123.352-1.893 1.067-2.068 2.07-.106-.023-.232.034-.235.177-.067 5.004-.027 10.02.007 15.026.02 2.855-1.007 7.58 1.379 9.776 2.279 2.098 6.385 1.34 9.14 1.296 4.737-.076 9.464-.035 14.196-.218.013.012.03.022.052.023 2.358.121 3.344-.924 3.774-2.436l.084-.002c.09-.002.09-.141 0-.14l-.05.001c.09-.348.147-.724.193-1.11.037-.008.03-.047.007-.069.098-.88.114-1.825.143-2.757.2-6.298.412-12.49-.067-18.78z"/><path id="ciwlb" d="M870.59 1292.127c-6.23 2.39-9.95-7.97-3.859-10.27a.341.341 0 0 0 .225-.294c3.077-.578 5.902.89 6.759 4.058.71 2.625-.547 5.517-3.124 6.506zm-3.837-10.92a.294.294 0 0 0-.2 0c-6.893 2.334-2.873 14.462 4.32 11.73 7.091-2.693 2.721-14.808-4.12-11.73z"/><path id="ciwlc" d="M878.889 1280.633c-.318.46-1.72.285-2.193.287-.263.002-.526.001-.789-.003-.578-.01-.665.087-.999-.374-.418-.58-.274-1.594-.332-2.295a24.646 24.646 0 0 0-.214-1.831c.013-.01.026-.016.038-.03.44-.525 1.623-.33 2.205-.33.573-.002 1.994-.21 2.318.424.236.462.033 1.57.025 2.1-.006.395.172 1.716-.06 2.052zm.708-3.285c-.022-.588-.005-1.263-.571-1.603-.396-.237-.951-.161-1.381-.172-.628-.014-1.254-.053-1.881-.073-.71-.022-1.353-.061-1.791.558-.08.113-.039.236.046.32a26.57 26.57 0 0 0 .089 4.03c.059.6.145.925.767 1.073 1.087.257 2.482.13 3.585.045.539-.041.905-.116 1.062-.676.285-1.022.114-2.45.075-3.502z"/><path id="ciwld" d="M879.622 1290.855c-.147 1.846.31 5.535-1.629 6.64-.024-.008-.047-.017-.077-.018-3.118-.117-6.253.005-9.373.05-1.758.025-9.607 1.061-10.709-1.191 0-.008.004-.013.004-.022.016-3.824.065-7.667.047-11.491.707.085 1.535.127 2.153-.085-.511 4.78 2.594 10.424 7.723 10.92 6.511.63 9.418-4.857 9.803-10.559.723-.014 1.474.04 2.181-.083.195 1.963.034 3.876-.123 5.839zm3.08-2.37c-.74-.076-1.493-.086-2.239-.105-.012-1.2-.067-2.38-.182-3.497-.017-.16-.142-.245-.269-.259a.325.325 0 0 0-.176-.18c-.813-.32-1.806-.138-2.622.078-.02.006-.033.017-.05.025-.152.027-.293.134-.304.331-.315 5.32-3.285 11.003-9.457 9.995-5.323-.87-6.282-6.01-6.96-10.444-.028-.187-.352-.189-.379 0l-.001.02c-.66-.29-1.558-.224-2.292-.047a.217.217 0 0 0-.239.065l-.11.03c-.117.037-.143.244 0 .266l.036.005c-.461 3.745-.449 7.803-.052 11.548a.223.223 0 0 0 .071.143c.133 2.225 3.65 1.646 5.204 1.63 5.07-.054 10.162.208 15.227-.044a.28.28 0 0 0 .19-.083c1.118-.2 1.566-.704 1.779-1.943.404-2.354.606-4.993.587-7.543.744.055 1.495.121 2.237.118.073 0 .07-.101 0-.108z"/><path id="ciwle" d="M881.453 1299.506c-5.404.22-10.815.293-16.216.53-.049.002-.05.075 0 .076 5.4.029 10.821-.23 16.216-.464.091-.004.092-.146 0-.142z"/><path id="ciwlf" d="M882.705 1295.677c-.873-.007-1.756.09-2.627.146-.05.004-.051.082 0 .08.872-.034 1.76-.027 2.627-.124.063-.007.067-.101 0-.102z"/><path id="ciwlg" d="M882.843 1294.1c-.811-.183-1.686-.172-2.51-.11-.057.004-.058.091 0 .09.845-.036 1.655.058 2.495.13.063.006.077-.096.015-.11z"/><path id="ciwlh" d="M882.828 1292.11c-.785-.055-1.584-.006-2.371.001-.063.001-.063.097 0 .097.787.008 1.586.057 2.37.002.066-.003.066-.096 0-.1z"/><path id="ciwli" d="M882.71 1290.38c-.69-.213-1.445-.193-2.141-.017-.033.008-.02.057.014.05.726-.146 1.383-.1 2.101.06.061.013.086-.074.027-.093z"/><path id="ciwlj" d="M882.85 1285.099c-.73-.214-1.55-.174-2.282.006-.049.012-.028.08.02.073.774-.128 1.476-.085 2.25.008.05.006.058-.074.011-.087z"/><path id="ciwlk" d="M882.826 1282.114c-2.443-.278-4.935-.132-7.365.2-.033.004-.025.062.008.058 2.466-.279 4.883-.244 7.356-.135.08.003.077-.114 0-.123z"/><path id="ciwll" d="M882.833 1280.363c-1.044.084-2.07.17-3.119.154-.046 0-.045.068 0 .07 1.04.052 2.103.05 3.135-.109.064-.01.05-.12-.016-.115z"/></defs><g><g transform="translate(-854 -1272)"><g><use fill="#ff917d" xlink:href="#ciwla"/></g><g><use fill="#ff917d" xlink:href="#ciwlb"/></g><g><use fill="#ff917d" xlink:href="#ciwlc"/></g><g><use fill="#ff917d" xlink:href="#ciwld"/></g><g><use fill="#ff917d" xlink:href="#ciwle"/></g><g><use fill="#ff917d" xlink:href="#ciwlf"/></g><g><use fill="#ff917d" xlink:href="#ciwlg"/></g><g><use fill="#ff917d" xlink:href="#ciwlh"/></g><g><use fill="#ff917d" xlink:href="#ciwli"/></g><g><use fill="#ff917d" xlink:href="#ciwlj"/></g><g><use fill="#ff917d" xlink:href="#ciwlk"/></g><g><use fill="#ff917d" xlink:href="#ciwll"/></g></g></g></svg>