<svg width="84" height="84" viewBox="0 0 84 84" fill="none" xmlns="http://www.w3.org/2000/svg">
<g clip-path="url(#clip0)">
<path d="M72.8488 69.9999C69.0688 69.9999 68.6488 68.3199 68.6488 67.4799C73.9688 65.2399 77.1888 59.9199 77.0488 54.1799C77.0488 53.8999 77.0488 53.3399 77.0488 53.1999C77.0488 46.1999 71.4488 40.5999 64.4488 40.5999H47.6488C46.8088 40.5999 46.2488 41.1599 46.2488 41.9999C46.2488 45.2199 47.5088 48.2999 49.6088 50.5399C49.3288 51.9399 49.0488 53.1999 49.0488 54.5999C49.0488 60.1999 52.4088 65.2399 57.4488 67.4799C57.4488 68.3199 57.0288 69.9999 53.2488 69.9999C49.3288 69.9999 46.2488 73.0799 46.2488 76.9999V83.9999H49.0488V76.9999C49.0488 74.6199 50.8688 72.7999 53.2488 72.7999C57.5888 72.7999 60.2488 70.6999 60.2488 67.1999V66.4999C60.2488 65.9399 59.8288 65.3799 59.2688 65.2399C54.7888 63.5599 51.8488 59.3599 51.8488 54.5999C51.8488 53.8999 51.8488 53.1999 51.9888 52.6399C53.9488 53.8999 56.3288 54.5999 58.8488 54.5999H74.2488C74.2488 59.3599 71.3088 63.5599 66.8288 65.0999C66.2688 65.2399 65.8488 65.7999 65.8488 66.3599V67.1999C65.8488 70.6999 68.5088 72.7999 72.8488 72.7999C75.2288 72.7999 77.0488 74.6199 77.0488 76.9999V83.9999H79.8488V76.9999C79.8488 73.0799 76.7688 69.9999 72.8488 69.9999ZM58.8488 51.7999C53.9488 51.7999 49.8888 48.1599 49.1888 43.3999H64.4488C69.3488 43.3999 73.4088 47.0399 74.1088 51.7999H58.8488Z" fill="white"/>
<path d="M83.9088 37.7998V13.9998C84.0488 10.9198 81.5288 8.39976 78.4488 8.39976H50.4488V5.59976C50.4488 2.51976 47.9288 -0.000244141 44.8488 -0.000244141H5.64883C2.56883 -0.000244141 0.0488281 2.51976 0.0488281 5.59976V36.3998C0.0488281 42.2798 2.14883 46.4798 6.34883 48.9998L7.74883 46.6198C4.52883 44.5198 2.84883 41.2998 2.84883 36.3998V5.59976C2.84883 4.05976 4.10883 2.79976 5.64883 2.79976H44.8488C46.3888 2.79976 47.6488 4.05976 47.6488 5.59976V32.1998C47.6488 33.7398 46.3888 34.9998 44.8488 34.9998H19.9288C15.5888 34.9998 11.8088 38.2198 11.2488 42.5598C11.2488 42.8398 11.2488 43.1198 11.2488 43.3998H14.0488C14.0488 43.2598 14.0488 42.9798 14.0488 42.8398C14.4688 39.8998 16.9888 37.7998 19.9288 37.7998H44.8488C47.9288 37.7998 50.4488 35.2798 50.4488 32.1998H67.2488C71.1688 32.1998 74.2488 35.2798 74.2488 39.1998H77.0488C77.0488 33.7398 72.7088 29.3998 67.2488 29.3998H50.4488V11.1998H78.4488C79.9888 11.1998 81.2488 12.4598 81.2488 13.9998V37.7998C81.3888 40.7398 80.5488 43.5398 78.7288 45.9198L80.8288 47.7398C83.0688 44.9398 84.1888 41.4398 83.9088 37.7998Z" fill="white"/>
<path d="M35.0489 71.3997C32.8089 71.3997 30.9889 69.7197 30.8489 67.4797C37.9889 64.3997 41.2089 56.1397 38.1289 48.9997C35.0489 41.8597 26.7889 38.6397 19.6489 41.7197C12.5089 44.7997 9.28885 53.0597 12.3689 60.1997C13.7689 63.4197 16.4289 66.0797 19.6489 67.4797C19.5089 69.7197 17.6889 71.3997 15.4489 71.3997C11.5289 71.3997 8.44885 74.4797 8.44885 78.3997V83.9997H11.2489V78.3997C11.2489 76.0197 13.0689 74.1997 15.4489 74.1997C19.3689 74.1997 22.4489 71.1197 22.4489 67.1997V66.4997C22.4489 65.9397 22.0289 65.3797 21.4689 65.2397C17.5489 63.8397 14.6089 60.3397 14.0489 56.1397H18.2489C18.5289 56.1397 18.8089 55.9997 19.0889 55.8597L22.4489 53.6197L25.8089 55.8597C26.0889 55.9997 26.3689 56.1397 26.6489 56.1397H36.3089C35.7489 60.3397 32.9489 63.8397 28.8889 65.2397C28.3289 65.3797 27.9089 65.9397 27.9089 66.4997V67.1997C27.9089 71.1197 30.9889 74.1997 34.9089 74.1997C37.2889 74.1997 39.1089 76.0197 39.1089 78.3997V83.9997H41.9089V78.3997C42.0489 74.4797 38.9689 71.3997 35.0489 71.3997ZM27.0689 53.1997L23.2889 50.6797C22.8689 50.3997 22.1689 50.3997 21.7489 50.6797L17.8289 53.1997H14.1889C14.8889 47.0397 20.4889 42.6997 26.6489 43.5397C31.6889 44.2397 35.7489 48.1597 36.3089 53.1997H27.0689Z" fill="white"/>
<path d="M36.4488 6.99976H7.04883V9.79976H36.4488V6.99976Z" fill="white"/>
<path d="M15.4488 12.5999H7.04883V15.3999H15.4488V12.5999Z" fill="white"/>
<path d="M39.2488 12.5999H18.2488V15.3999H39.2488V12.5999Z" fill="white"/>
<path d="M9.84883 18.1997H7.04883V20.9997H9.84883V18.1997Z" fill="white"/>
<path d="M23.8488 18.1997H12.6488V20.9997H23.8488V18.1997Z" fill="white"/>
<path d="M39.2489 18.1997H26.6489V20.9997H39.2489V18.1997Z" fill="white"/>
<path d="M78.4488 16.7998H58.8488V19.5998H78.4488V16.7998Z" fill="white"/>
<path d="M63.0488 22.3997H53.2488V25.1997H63.0488V22.3997Z" fill="white"/>
<path d="M78.4488 22.3997H65.8488V25.1997H78.4488V22.3997Z" fill="white"/>
<path d="M56.0488 16.7998H53.2488V19.5998H56.0488V16.7998Z" fill="white"/>
</g>
<defs>
<clipPath id="clip0">
<rect width="84" height="84" fill="white" transform="translate(0 -0.000244141)"/>
</clipPath>
</defs>
</svg>
