<svg width="86" height="86" viewBox="0 0 86 86" fill="none" xmlns="http://www.w3.org/2000/svg">
<g clip-path="url(#clip0)">
<path d="M63.064 53.0336C63.064 52.2425 62.4219 51.6003 61.6308 51.6003H53.0308C52.2396 51.6003 51.5975 52.2425 51.5975 53.0336C51.5975 53.8248 52.2396 54.4669 53.0308 54.4669H61.6308C62.4219 54.4671 63.064 53.8249 63.064 53.0336Z" fill="white"/>
<path d="M57.3306 15.767V8.60027C57.3306 7.80914 56.6885 7.16699 55.8973 7.16699C55.1062 7.16699 54.464 7.80914 54.464 8.60027V15.767C54.464 19.7186 57.679 22.9337 61.6308 22.9337H74.5308V50.167C74.5308 50.9581 75.1729 51.6003 75.964 51.6003C76.7552 51.6003 77.3973 50.9581 77.3973 50.167V21.5003C77.3973 20.7091 76.7552 20.067 75.964 20.067H61.6308C59.2599 20.067 57.3306 18.1377 57.3306 15.767Z" fill="white"/>
<path d="M61.6306 34.4001H50.1639C49.3727 34.4001 48.7306 35.0423 48.7306 35.8334C48.7306 36.6246 49.3727 37.2667 50.1639 37.2667H61.6306C62.4217 37.2667 63.0639 36.6246 63.0639 35.8334C63.0641 35.0423 62.4219 34.4001 61.6306 34.4001Z" fill="white"/>
<path d="M45.864 35.8334C45.864 35.0423 45.2219 34.4001 44.4308 34.4001H35.8308C35.0396 34.4001 34.3975 35.0423 34.3975 35.8334C34.3975 36.6246 35.0396 37.2667 35.8308 37.2667H44.4308C45.2219 37.2669 45.864 36.6247 45.864 35.8334Z" fill="white"/>
<path d="M35.8306 43.0002C35.0395 43.0002 34.3973 43.6424 34.3973 44.4335C34.3973 45.2247 35.0395 45.8668 35.8306 45.8668H38.6973C39.4884 45.8668 40.1306 45.2247 40.1306 44.4335C40.1306 43.6424 39.4884 43.0002 38.6973 43.0002H35.8306Z" fill="white"/>
<path d="M35.8306 28.6668H50.1639C50.955 28.6668 51.5972 28.0247 51.5972 27.2336C51.5972 26.4424 50.955 25.8003 50.1639 25.8003H35.8306C35.0395 25.8003 34.3973 26.4424 34.3973 27.2336C34.3973 28.0247 35.0395 28.6668 35.8306 28.6668Z" fill="white"/>
<path d="M44.4306 45.867H58.7639C59.555 45.867 60.1972 45.2249 60.1972 44.4338C60.1972 43.6426 59.555 43.0005 58.7639 43.0005H44.4306C43.6395 43.0005 42.9973 43.6426 42.9973 44.4338C42.9973 45.2249 43.6395 45.867 44.4306 45.867Z" fill="white"/>
<path d="M53.0306 60.2002C52.2395 60.2002 51.5973 60.8423 51.5973 61.6335C51.5973 62.4246 52.2395 63.0668 53.0306 63.0668H55.8973C56.6885 63.0668 57.3306 62.4246 57.3306 61.6335C57.3306 60.8423 56.6885 60.2002 55.8973 60.2002H53.0306Z" fill="white"/>
<path d="M47.2973 51.6003H35.8306C35.0395 51.6003 34.3973 52.2425 34.3973 53.0336C34.3973 53.8248 35.0395 54.4669 35.8306 54.4669H47.2973C48.0885 54.4669 48.7306 53.8248 48.7306 53.0336C48.7306 52.2425 48.0885 51.6003 47.2973 51.6003Z" fill="white"/>
<path d="M47.2973 60.2002H35.8306C35.0395 60.2002 34.3973 60.8423 34.3973 61.6335C34.3973 62.4246 35.0395 63.0668 35.8306 63.0668H47.2973C48.0885 63.0668 48.7306 62.4246 48.7306 61.6335C48.7306 60.8423 48.0885 60.2002 47.2973 60.2002Z" fill="white"/>
<path d="M81.4235 59.0408L78.5568 56.1741C76.3537 53.971 72.9969 53.9754 70.7968 56.1741L52.0172 74.9537C51.7492 75.2218 51.5973 75.5873 51.5973 75.967V84.567C51.5973 85.3582 52.2395 86.0003 53.0306 86.0003H61.6306C62.0104 86.0003 62.3759 85.8485 62.644 85.5804L81.4235 66.8008C83.7069 64.5175 83.7069 61.3255 81.4235 59.0408ZM68.9435 62.0809L71.2167 64.3542L58.7639 76.8071L56.4906 74.5338L68.9435 62.0809ZM54.464 83.1336V76.5603L61.0373 83.1336H54.464ZM63.064 81.1069L60.7907 78.8336L73.2436 66.3807L75.5169 68.654L63.064 81.1069ZM79.3968 64.7741L77.5434 66.6275L70.9702 60.0542L72.8235 58.2008C73.9558 57.0699 75.3921 57.0642 76.5301 58.2008L79.3968 61.0675C80.5563 62.2285 80.5563 63.6145 79.3968 64.7741Z" fill="white"/>
<path d="M47.2973 83.1335H10.0306C7.65988 83.1335 5.73059 81.2042 5.73059 78.8335V7.16697C5.73059 4.79626 7.65988 2.86697 10.0306 2.86697H55.3039L69.2172 16.7803C69.7776 17.3408 70.6836 17.3408 71.2439 16.7803C71.8045 16.22 71.8045 15.314 71.2439 14.7536L56.9107 0.420166C56.6426 0.150744 56.2771 0.000244141 55.8973 0.000244141H10.0306C6.07896 0.000244141 2.86404 3.21517 2.86404 7.16697V78.8337C2.86404 82.7853 6.07896 86.0004 10.0308 86.0004H47.2975C48.0886 86.0004 48.7308 85.3583 48.7308 84.5671C48.7308 83.776 48.0885 83.1335 47.2973 83.1335Z" fill="white"/>
<path d="M47.2973 68.8003H35.8306C35.0395 68.8003 34.3973 69.4424 34.3973 70.2336C34.3973 71.0247 35.0395 71.6668 35.8306 71.6668H47.2973C48.0885 71.6668 48.7306 71.0247 48.7306 70.2336C48.7306 69.4424 48.0885 68.8003 47.2973 68.8003Z" fill="white"/>
<path d="M28.664 27.2336C28.664 26.4424 28.0219 25.8003 27.2308 25.8003H18.6308C17.8396 25.8003 17.1975 26.4424 17.1975 27.2336V35.8336C17.1975 36.6247 17.8396 37.2668 18.6308 37.2668H27.2308C28.0219 37.2668 28.664 36.6247 28.664 35.8336V27.2336ZM25.7973 34.4003H20.064V28.667H25.7973V34.4003Z" fill="white"/>
<path d="M18.6306 71.667H27.2306C28.0217 71.667 28.6639 71.0248 28.6639 70.2337V61.6337C28.6639 60.8426 28.0217 60.2004 27.2306 60.2004H18.6306C17.8395 60.2004 17.1973 60.8426 17.1973 61.6337V70.2337C17.1973 71.0248 17.8395 71.667 18.6306 71.667ZM20.064 63.067H25.7973V68.8003H20.064V63.067Z" fill="white"/>
<path d="M20.484 54.0469C20.7534 54.3163 21.1189 54.4668 21.4973 54.4668C21.5447 54.4668 21.5905 54.4655 21.6392 54.4596C22.0664 54.4181 22.4519 54.1858 22.6899 53.8289L28.4232 45.2289C28.8617 44.5696 28.684 43.6793 28.0261 43.2408C27.3653 42.8007 26.4781 42.9799 26.038 43.6379L21.2751 50.7831L19.6439 49.1534C19.0836 48.5929 18.1776 48.5929 17.6172 49.1534C17.0569 49.714 17.0567 50.6198 17.6172 51.1802L20.484 54.0469Z" fill="white"/>
</g>
<defs>
<clipPath id="clip0">
<rect width="86" height="86" fill="white" transform="translate(0 0.000244141)"/>
</clipPath>
</defs>
</svg>
