<svg xmlns="http://www.w3.org/2000/svg" xmlns:xlink="http://www.w3.org/1999/xlink" viewBox="0 0 17 30"><defs><path id="xpuya" d="M828.228 1277.485c-.883-.001-1.77.026-2.65.042-.064.001-.064.099 0 .1.814.015 1.635.039 2.454.042-.012.014-.03.023-.041.037-.364.45-.564 1.008-.653 1.605-.708.112-1.4.17-2.138.11-.053-.005-.05.075 0 .082.687.09 1.422.099 2.12-.025a6.946 6.946 0 0 0 .037 1.71c-.846-.018-1.694.006-2.538.013-.06.001-.06.091 0 .092.85.007 1.703.031 2.553.013.074.488.18.958.303 1.371-.006.01-.005.023-.01.034-1.027-.054-2.072-.004-3.1.013-.052.001-.052.082 0 .082 1.018.018 2.052.065 3.07.015a.315.315 0 0 0 .291.327c1.455.165 3.048.283 4.513.164-.182.423-.182.922-.169 1.4a34.897 34.897 0 0 0-8.09-.02c-.066.007-.068.112 0 .106 2.712-.251 5.392-.203 8.096.104l.005.195c.006.284.02.572.036.86a260.24 260.24 0 0 0-6.487.162c-.054.002-.054.084 0 .084 2.163 0 4.33-.025 6.494-.078.026.412.063.824.124 1.231-2.71-.033-5.426 0-8.136.049-.055.001-.055.084 0 .085 2.72.05 5.444.082 8.165.048.014.084.024.169.04.252-1.4-.114-3.064-.138-4.45.242-.158-.146-.47-.085-.473.194l-.001.049c0 .012-.003.022 0 .034-.004.189-.002.38-.004.569-.717-.032-1.446.013-2.157.074-.281.024-.889-.037-1.072.224-.009.013-.006.036.006.046l.056.048c.013.011.034.013.047 0l.038-.04c.022-.022-.008-.066-.035-.045.149-.115.627-.067.833-.081.297-.02.594-.037.891-.047.465-.016.929-.007 1.393-.012 0 .332-.004.664-.004.996-.92-.021-1.848.006-2.766.026-.049.001-.05.075 0 .076.918.02 1.845.048 2.765.026-.001.465-.007.93-.007 1.395-.84.125-1.654.221-2.508.18-.058-.003-.057.086 0 .09.831.06 1.69.043 2.507-.143 0 .38-.005.76-.006 1.14-1.268.194-2.483.312-3.768.178-.057-.006-.056.081 0 .088 1.239.163 2.542.174 3.768-.114 0 .406-.008.81-.006 1.217-.83.025-1.665.103-2.493.153-.061.004-.062.098 0 .096.828-.033 1.665-.038 2.493-.097 0 .323-.002.644 0 .966-1.166 0-2.34.036-3.504.057-.047 0-.047.07 0 .072 1.15.08 2.345.106 3.504.028.002.308 0 .616.002.924-.873.022-1.75.1-2.62.148-.049.003-.05.078 0 .076.87-.032 1.75-.037 2.62-.097.004.462.001.926.008 1.389-.834.018-1.671.098-2.502.147-.052.003-.053.085 0 .082.83-.033 1.673-.037 2.504-.102.006.439.01.877.018 1.315-1.01 0-2.016.077-3.028.06-.051 0-.05.074 0 .079.988.08 2.047.123 3.03-.03.008.402.012.804.023 1.206-1.486-.245-3.2-.077-4.71.086 0-.01.005-.016.005-.026.045-4.252.354-8.67.01-12.904a.244.244 0 0 0-.47-.087c-1.3-.168-2.741-.131-4.05-.061.206-1.476.173-3.162-.203-4.602 1.306.088 2.712.126 3.997-.088.128-.021.186-.104.194-.197.118 0 .242-.078.24-.218-.022-2.755-.519-5.786 1.702-7.91 2.303-2.202 5.628-2.087 8.556-1.665-.042.18-.07.375-.101.567-1-.141-2.03-.166-3.036-.24-.07-.006-.07.103 0 .11.996.1 2.007.252 3.008.285-.051.35-.09.71-.105 1.075-1.962-.268-3.97-.273-5.94-.156-.05.003-.05.08 0 .079 1.995-.057 3.952.077 5.935.24-.015.62.026 1.234.142 1.78-1.349-.14-3.448-.275-4.565.745zm5.148-4.59c.177-.189.176-.528-.146-.584-3.105-.535-6.688-.605-9.167 1.662-2.306 2.108-2.415 5.6-1.9 8.49-.013-.003-.023-.01-.037-.011-1.33-.137-2.778.01-4.099.188-.202.026-.256.245-.147.357-.003.01-.011.015-.012.025-.117 1.513-.007 3.172.188 4.683-.225.077-.204.436.07.451 1.362.078 2.9.13 4.28-.042-.4 4.13-.155 8.464-.1 12.608a.275.275 0 0 0 .13.24c-.016.107.04.223.19.235 1.605.124 3.483.28 5.065-.048.083-.017.126-.081.151-.153.08-.015.155-.068.166-.174.389-4.063.411-8.274.163-12.352 1.45.118 3.019-.03 4.456-.075a.334.334 0 0 0 .131-.031c.165.058.387-.034.378-.248-.033-.82-.147-1.634-.18-2.455-.032-.806-.172-1.848-.011-2.635.02-.1-.069-.19-.159-.178a.238.238 0 0 0-.183-.122c-1.458-.24-3.06-.252-4.54-.199-.16-.906-.289-2.197-.04-3.24.015-.015.02-.035.013-.054.116-.455.298-.865.598-1.16.188-.186.418-.317.664-.425.067-.002.133-.002.2-.005.06-.003.075-.064.052-.103 1.012-.334 2.318-.21 3.275-.204.22.001.306-.174.277-.336.053-.023.1-.06.12-.122.365-1.173.377-2.746.154-3.983z"/><path id="xpuyb" d="M832.535 1276.388a188.12 188.12 0 0 0-6.06-.57c-.06-.005-.059.085 0 .093 2.015.24 4.038.475 6.06.65.112.01.109-.16 0-.173z"/></defs><g><g transform="translate(-817 -1272)"><g><use fill="#559dce" xlink:href="#xpuya"/></g><g><use fill="#559dce" xlink:href="#xpuyb"/></g></g></g></svg>