<svg width="82" height="82" viewBox="0 0 82 82" fill="none" xmlns="http://www.w3.org/2000/svg">
<g clip-path="url(#clip0)">
<path d="M49.2001 40.9992C51.9607 40.9992 54.228 38.9342 54.5916 36.2707L59.5866 32.5261C60.1907 32.0736 60.3137 31.2168 59.86 30.6127C59.4076 30.0086 58.5508 29.8843 57.9467 30.3393L54.4631 32.9524C53.9425 31.2865 52.4035 30.0661 50.5669 30.0661H45.1003C42.8399 30.0661 41.0004 31.9056 41.0004 34.1661C41.0004 31.9056 39.1608 30.0661 36.9004 30.0661H31.4335C29.5967 30.0661 28.0579 31.2865 27.5371 32.9524L24.0536 30.3393C23.4509 29.8869 22.5927 30.0099 22.1402 30.6127C21.6865 31.2168 21.8095 32.0736 22.4136 32.5261L27.4087 36.2707C27.7722 38.9342 30.0381 40.9992 32.8001 40.9992H35.5335C38.5484 40.9992 41 38.5474 41 35.5327C41 38.5476 43.4519 40.9992 46.4666 40.9992H49.2001ZM38.2668 35.5327C38.2668 37.04 37.0396 38.266 35.5335 38.266H32.8001C31.294 38.266 30.0668 37.0402 30.0668 35.5327V34.1661C30.0668 33.413 30.679 32.7995 31.4334 32.7995H36.8999C37.6543 32.7995 38.2665 33.413 38.2665 34.1661V35.5327H38.2668ZM43.7334 35.5327V34.1661C43.7334 33.413 44.3457 32.7995 45.1 32.7995H50.5666C51.3209 32.7995 51.9332 33.413 51.9332 34.1661V35.5327C51.9332 37.04 50.7059 38.266 49.1998 38.266H46.4664C44.9607 38.2659 43.7334 37.04 43.7334 35.5327Z" fill="white"/>
<path d="M81.9588 80.3L80.5621 74.7337C79.861 72.6263 75.7118 65.8476 51.9335 65.6631V64.2323C51.9335 63.478 51.3227 62.8657 50.5669 62.8657C49.8111 62.8657 49.2003 63.478 49.2003 64.2323V66.9657C49.2003 66.9753 49.2058 66.9835 49.2058 66.9931C49.2058 67.0012 49.2003 67.0081 49.2003 67.0177C49.1949 67.8513 48.9202 75.1658 41.0004 75.1658C33.0806 75.1658 32.8059 67.8009 32.8005 66.9658V64.2325C32.8005 63.4782 32.1896 62.8659 31.4339 62.8659C30.6781 62.8659 30.0673 63.4782 30.0673 64.2325V65.6129C12.3578 65.752 3.48959 68.5783 1.40822 74.8334L0.0416171 80.3C-0.142881 81.0325 0.303951 81.7745 1.0365 81.9578C1.76632 82.1437 2.50976 81.6954 2.69282 80.9642L4.02947 75.5974C5.61756 70.8345 14.17 68.4553 30.1571 68.3363C30.6533 72.249 33.3126 77.8988 41.0001 77.8988C48.6833 77.8988 51.3443 72.2833 51.843 68.3911C70.5744 68.5291 77.0864 72.9502 77.9407 75.4976L79.3073 80.9642C79.4631 81.5846 80.0194 81.9988 80.6316 81.9988C80.741 81.9988 80.853 81.9864 80.9638 81.9578C81.6963 81.7745 82.1419 81.0325 81.9588 80.3Z" fill="white"/>
<path d="M9.39083 6.82208L40.8239 10.922C40.8827 10.9289 40.9415 10.9329 41.0002 10.9329C41.059 10.9329 41.1178 10.9288 41.1766 10.922L71.0666 7.02307V11.7681C70.2097 12.7316 68.3332 15.1355 68.3332 17.7664C68.3332 20.7744 70.785 21.8664 72.4332 21.8664C74.0813 21.8664 76.5331 20.7744 76.5331 17.7664C76.5331 15.1355 74.6567 12.7316 73.7998 11.7681V5.46637C73.7998 5.28603 73.7615 5.11515 73.6973 4.9566C73.674 4.90054 73.6343 4.85682 73.6044 4.80493C73.551 4.70932 73.4977 4.61499 73.424 4.53571C73.3761 4.4851 73.3188 4.45099 73.2642 4.40999C73.1864 4.34705 73.1098 4.28699 73.0196 4.24327C72.9527 4.21043 72.8816 4.19682 72.8092 4.17632C72.7423 4.15582 72.682 4.12027 72.6096 4.11066L41.1766 0.0106981C41.059 -0.00291501 40.9415 -0.00291501 40.8239 0.0106981L9.39083 4.11066C8.71017 4.19954 8.20056 4.78026 8.20056 5.46637C8.20056 6.15247 8.71033 6.73335 9.39083 6.82208ZM73.7999 17.7662C73.7999 18.8569 73.0605 19.1123 72.4333 19.1328C71.806 19.1123 71.0667 18.8567 71.0667 17.7662C71.0667 16.6319 71.7637 15.3663 72.4333 14.4329C73.1029 15.3665 73.7999 16.632 73.7999 17.7662ZM41.0002 2.74406L61.8676 5.46637L41.0002 8.18884L20.1327 5.46637L41.0002 2.74406Z" fill="white"/>
<path d="M44.1503 49.5846C44.1066 49.6242 43.0761 50.5659 41.0002 50.5659C38.9544 50.5659 37.9238 49.6516 37.8528 49.5861C37.3213 49.0654 36.4643 49.0694 35.934 49.5997C35.3996 50.1341 35.3996 50.9978 35.934 51.5321C36.1144 51.7124 37.7926 53.2992 41.0002 53.2992C44.2078 53.2992 45.886 51.7126 46.0664 51.5321C46.5939 51.0045 46.5925 50.16 46.0745 49.6242C45.5539 49.0886 44.6956 49.0736 44.1503 49.5846Z" fill="white"/>
<path d="M19.1337 27.5664C17.5428 28.1308 16.4003 29.6505 16.4003 31.4327V36.8992C16.4003 38.8057 17.7081 40.4129 19.4753 40.8693C20.2064 43.026 22.2264 48.8738 23.3784 51.1765C25.5487 55.5183 31.7028 62.8656 41.0001 62.8656C50.2974 62.8656 56.4515 55.5185 58.6217 51.1765C59.7739 48.8737 61.7937 43.0258 62.5249 40.8693C64.292 40.4129 65.5998 38.8057 65.5998 36.8992V31.4327C65.5998 29.6506 64.4573 28.1308 62.8665 27.5664V25.9661C62.8665 25.2118 62.2556 24.5995 61.4999 24.5995C60.7441 24.5995 60.1333 25.2118 60.1333 25.9661V28.6995C60.1333 29.4538 60.7441 30.0661 61.4999 30.0661C62.2542 30.0661 62.8665 30.6796 62.8665 31.4327V36.8992C62.8665 37.6523 62.2542 38.2658 61.4999 38.2658C60.9108 38.2658 60.3887 38.6417 60.2042 39.2007C60.1755 39.2812 57.4846 47.3391 56.1781 49.9549C55.9689 50.3703 50.9739 60.1324 41.0001 60.1324C31.0263 60.1324 26.031 50.3703 25.822 49.9549C24.5142 47.3391 21.8246 39.2814 21.7959 39.2007C21.61 38.6417 21.0893 38.2658 20.5003 38.2658C19.7459 38.2658 19.1337 37.6523 19.1337 36.8992V31.4327C19.1337 30.6796 19.7459 30.0661 20.5003 30.0661C21.256 30.0661 21.8669 29.4538 21.8669 28.6995V25.966C21.8669 25.2116 21.256 24.5994 20.5003 24.5994C19.7445 24.5994 19.1337 25.2116 19.1337 25.966V27.5664Z" fill="white"/>
<path d="M20.5004 9.56616C19.7447 9.56616 19.1339 10.1784 19.1339 10.9328V20.4993C19.1339 21.0172 19.4263 21.4902 19.8896 21.7224C20.2367 21.8945 28.5213 25.9658 41.0002 25.9658C53.4792 25.9658 61.7638 21.8945 62.1109 21.7224C62.5742 21.49 62.8666 21.0172 62.8666 20.4993V10.9329C62.8666 10.1786 62.2558 9.56632 61.5 9.56632C60.7443 9.56632 60.1334 10.1786 60.1334 10.9329V19.6152C57.873 20.5733 50.7199 23.2328 41.0002 23.2328C31.2806 23.2328 24.1275 20.5733 21.8671 19.6152V10.9329C21.8671 10.1784 21.2562 9.56616 20.5004 9.56616Z" fill="white"/>
</g>
<defs>
<clipPath id="clip0">
<rect width="82" height="82" fill="white" transform="translate(0 0.000244141)"/>
</clipPath>
</defs>
</svg>
