<svg width="84" height="84" viewBox="0 0 84 84" fill="none" xmlns="http://www.w3.org/2000/svg">
<g clip-path="url(#clip0)">
<path d="M2.05943 52.3475C2.5204 52.667 3.00691 52.9479 3.51403 53.1875C4.11883 53.4969 5.13383 54.0149 5.20383 54.3775C5.29305 54.8559 5.23596 55.3502 5.04003 55.7957C4.83143 56.2437 4.61163 56.6287 4.42403 56.9619C3.91023 57.8663 3.05343 59.3825 4.34703 60.4409C4.64943 60.7209 5.17163 61.1255 5.64903 61.4909C5.29821 62.1034 5.13923 62.8072 5.19263 63.5111C5.26724 64.0652 5.56772 64.5638 6.02283 64.8887C6.33363 65.1071 6.66543 65.2975 6.99303 65.4837C7.82043 65.9555 8.14383 66.1739 8.25303 66.6135C8.33105 67.1769 8.28323 67.7507 8.11303 68.2935C8.03183 68.6687 7.95063 69.0439 7.90443 69.4135C7.76526 70.6892 7.92241 71.9799 8.36363 73.1851C8.99282 75.4092 11.0043 76.959 13.3154 77.0001C13.7013 76.9988 14.0859 76.958 14.4634 76.8783C18.4629 75.93 22.4039 74.7506 26.2668 73.3461C29.421 75.1969 31.4132 80.8249 31.9326 82.9375C32.0877 83.562 32.6485 84.0004 33.292 84.0001L68.432 83.9021C68.8774 83.9012 69.2957 83.6885 69.5588 83.3292C69.8219 82.9699 69.8984 82.5069 69.7648 82.0821C69.4177 81.1337 68.9399 80.2383 68.3452 79.4221C68.0099 78.9393 67.7073 78.4347 67.4394 77.9115C66.8072 76.6271 66.2787 75.2943 65.8588 73.9257C65.0597 71.2201 64.5059 68.4481 64.204 65.6433C63.7093 61.4652 64.3375 57.2309 66.024 53.3765C66.171 53.0559 68.3648 48.6417 68.5636 48.2819C68.809 47.846 68.8031 47.3123 68.5483 46.8819C68.2934 46.4515 67.8283 46.1897 67.3282 46.1952C66.828 46.2007 66.3688 46.4726 66.1234 46.9085C65.891 47.3215 63.5936 51.9611 63.4634 52.2285C61.5681 56.5469 60.8596 61.2928 61.411 65.9765C61.7383 68.9519 62.3333 71.8916 63.189 74.7601C63.6496 76.2655 64.2306 77.7313 64.9264 79.1435C65.2456 79.7745 65.6081 80.3826 66.0114 80.9635L66.1052 81.1035L34.3504 81.2001C33.4205 77.8792 31.7337 74.8191 29.4224 72.2597L30.6824 71.8173C31.619 71.4911 32.3246 71.2447 32.6858 71.1285C38.6848 69.2315 41.6836 66.5001 41.6024 63.0085C41.6039 62.6358 41.4527 62.2788 41.1839 62.0206C40.9152 61.7624 40.5523 61.6256 40.18 61.6421C39.4073 61.6604 38.7956 62.3015 38.8136 63.0743C38.8472 64.5149 37.667 66.6163 31.8458 68.4573C31.4664 68.5791 30.737 68.8339 29.7696 69.1713C28.728 69.5353 27.405 69.9987 25.9434 70.4943H25.935C21.995 71.9381 17.975 73.1534 13.895 74.1343C12.5904 74.3813 11.3219 73.5597 11.0138 72.2681C10.7157 71.4709 10.6032 70.6162 10.6848 69.7691C10.7226 69.4765 10.7884 69.1839 10.8528 68.8913C11.1376 67.9237 11.1789 66.9008 10.9732 65.9135C10.567 64.6281 9.62159 63.5831 8.38323 63.0505C8.28523 62.9959 8.18863 62.9399 8.09203 62.8839C8.2437 62.5786 8.42469 62.2889 8.63243 62.0187C8.86714 61.7209 8.97105 61.3407 8.92039 60.9649C8.86972 60.5892 8.66883 60.25 8.36363 60.0251C8.02763 59.7787 7.23523 59.1851 6.65423 58.7175C6.72143 58.5957 6.79423 58.4613 6.86563 58.3409C7.08543 57.9545 7.33743 57.5009 7.58103 56.9885C8.02476 56.0073 8.15529 54.9133 7.95483 53.8553C7.61883 52.1473 5.98223 51.3101 4.78803 50.6997C4.3857 50.5083 3.99985 50.284 3.63443 50.0291C3.33441 49.8282 3.05326 49.6004 2.79443 49.3487C2.79443 49.1373 3.02123 48.6235 4.08803 47.3243C6.59559 44.0968 8.7455 40.6067 10.5 36.9153C10.8294 36.3368 11.0147 35.6876 11.0404 35.0225C10.8974 33.6147 10.1513 32.338 8.99503 31.5225C8.43503 31.0031 7.89463 30.5131 7.83303 30.0595C7.8441 29.7285 7.91773 29.4027 8.05003 29.0991C8.27823 28.4999 8.54283 27.9119 8.80603 27.3239C9.38082 26.1394 9.83982 24.9021 10.1766 23.6293L10.3166 23.0329C10.614 21.6331 10.9969 20.2529 11.4632 18.9001C12.5672 15.8554 14.2753 13.0653 16.485 10.6975C17.9869 9.16589 19.7587 7.92475 21.7112 7.03649C22.1634 6.82242 22.467 6.38338 22.5077 5.88477C22.5484 5.38615 22.3199 4.90371 21.9085 4.61917C21.497 4.33463 20.965 4.29122 20.5128 4.50529C18.247 5.5421 16.1922 6.9888 14.4522 8.77249C11.9812 11.4158 10.0706 14.5317 8.83543 17.9327C8.33071 19.395 7.91646 20.8869 7.59503 22.4001L7.45503 22.9909C7.15667 24.0905 6.75446 25.1593 6.25383 26.1829C5.97383 26.8199 5.68543 27.4569 5.43203 28.1205C5.11317 28.856 4.98694 29.6606 5.06523 30.4585C5.34682 31.7136 6.07154 32.825 7.10643 33.5889C7.78963 34.2161 8.23903 34.6585 8.24463 35.0435C8.19405 35.2561 8.11394 35.4606 8.00663 35.6511C6.3297 39.1832 4.27462 42.5231 1.87743 45.6121C0.865231 46.8441 -0.195969 48.2833 0.0266306 49.7239C0.324753 50.8357 1.05725 51.7811 2.05943 52.3475Z" fill="white"/>
<path d="M15.631 24.9091L15.771 24.3001C16.019 23.1299 16.3341 21.9748 16.7146 20.8407C17.5557 18.4999 18.8668 16.3559 20.5674 14.5407C20.9473 14.1361 21.366 13.7699 21.8176 13.4473C22.4458 12.9965 22.5897 12.1218 22.1389 11.4936C21.6881 10.8654 20.8134 10.7215 20.1852 11.1723C19.5874 11.5998 19.0327 12.0847 18.529 12.6199C16.5685 14.7122 15.056 17.1828 14.084 19.8803C13.6623 21.123 13.314 22.3894 13.041 23.6729L12.901 24.2889C12.7846 24.7786 12.94 25.2931 13.3081 25.6365C13.6761 25.9798 14.2002 26.0992 14.6806 25.949C15.1611 25.7989 15.5239 25.4024 15.631 24.9105V24.9091Z" fill="white"/>
<path d="M12.6001 30.8002C13.3733 30.8002 14.0001 30.1734 14.0001 29.4002C14.0001 28.627 13.3733 28.0002 12.6001 28.0002C11.8269 28.0002 11.2001 28.627 11.2001 29.4002C11.2001 30.1734 11.8269 30.8002 12.6001 30.8002Z" fill="white"/>
<path d="M84 40.6842V6.91624C84.0023 5.42074 82.7935 4.20565 81.298 4.20024H78.4V2.70504C78.4148 1.22859 77.2318 0.0186943 75.7554 0.000244141H59.5784C57.614 0.0171639 55.7711 0.954145 54.6 2.53144C54.4276 2.29858 54.2406 2.07693 54.04 1.86784C53.9575 1.77784 53.8633 1.69922 53.76 1.63404C52.6305 0.595663 51.1558 0.0134668 49.6216 0.000244141H33.4446C31.9682 0.0186943 30.7852 1.22859 30.8 2.70504V4.20024H27.902C26.4065 4.20565 25.1977 5.42074 25.2 6.91624V40.6842C25.1977 42.1797 26.4065 43.3948 27.902 43.4002L47.614 43.3022V44.8842C47.6117 46.3797 48.8205 47.5948 50.316 47.6002H58.898C60.3935 47.5948 61.6023 46.3797 61.6 44.8842L61.502 43.4002H81.298C82.7935 43.3948 84.0023 42.1797 84 40.6842ZM59.5784 2.80024H75.6V28.0002H59.5784C58.286 28.0047 57.0301 28.4292 56 29.2098V6.61804C55.9379 4.57715 57.5378 2.87024 59.5784 2.80024ZM33.6 30.8002H49.6216C51.7616 30.9874 53.3551 32.8577 53.2 35.0002H33.6V30.8002ZM75.6 30.8002L75.5902 35.0002H56C55.845 32.8577 57.4384 30.9874 59.5784 30.8002H75.6ZM33.6 2.80024H49.6216C51.6623 2.87024 53.2621 4.57715 53.2 6.61804V29.2098C52.17 28.4292 50.914 28.0047 49.6216 28.0002H33.6V2.80024ZM59.5882 41.3884C59.0836 41.8976 58.8003 42.5854 58.8 43.3022L58.898 44.8002L50.414 44.8842V43.3022C50.4125 41.8106 49.2037 40.6018 47.712 40.6002L28 40.6842L27.902 7.00024H30.8V35.0002C30.76 36.5026 31.9424 37.7545 33.4446 37.8002H53.2C53.2 37.8226 53.2112 37.8408 53.2126 37.8632C53.214 37.8856 53.2 37.9052 53.2 37.9276V40.5372C53.2 41.3104 53.8268 41.9372 54.6 41.9372C55.3732 41.9372 56 41.3104 56 40.5372V37.9276C56 37.9052 55.9888 37.8856 55.9874 37.8632C55.986 37.8408 56 37.8226 56 37.8002H75.7554C77.2576 37.7545 78.44 36.5026 78.4 35.0002V6.97224L81.2 6.91624L81.298 40.6002H61.502C60.7851 40.6005 60.0974 40.8838 59.5882 41.3884Z" fill="white"/>
<path d="M37.8 9.80025H49C49.7732 9.80025 50.4 9.17344 50.4 8.40025C50.4 7.62705 49.7732 7.00024 49 7.00024H37.8C37.0268 7.00024 36.4 7.62705 36.4 8.40025C36.4 9.17344 37.0268 9.80025 37.8 9.80025Z" fill="white"/>
<path d="M37.8 16.8002H49C49.7732 16.8002 50.4 16.1734 50.4 15.4002C50.4 14.627 49.7732 14.0002 49 14.0002H37.8C37.0268 14.0002 36.4 14.627 36.4 15.4002C36.4 16.1734 37.0268 16.8002 37.8 16.8002Z" fill="white"/>
<path d="M37.8 23.8002H49C49.7732 23.8002 50.4 23.1734 50.4 22.4002C50.4 21.627 49.7732 21.0002 49 21.0002H37.8C37.0268 21.0002 36.4 21.627 36.4 22.4002C36.4 23.1734 37.0268 23.8002 37.8 23.8002Z" fill="white"/>
<path d="M60.2 9.80025H71.4C72.1732 9.80025 72.8 9.17344 72.8 8.40025C72.8 7.62705 72.1732 7.00024 71.4 7.00024H60.2C59.4268 7.00024 58.8 7.62705 58.8 8.40025C58.8 9.17344 59.4268 9.80025 60.2 9.80025Z" fill="white"/>
<path d="M60.2 16.8002H71.4C72.1732 16.8002 72.8 16.1734 72.8 15.4002C72.8 14.627 72.1732 14.0002 71.4 14.0002H60.2C59.4268 14.0002 58.8 14.627 58.8 15.4002C58.8 16.1734 59.4268 16.8002 60.2 16.8002Z" fill="white"/>
<path d="M60.2 23.8002H71.4C72.1732 23.8002 72.8 23.1734 72.8 22.4002C72.8 21.627 72.1732 21.0002 71.4 21.0002H60.2C59.4268 21.0002 58.8 21.627 58.8 22.4002C58.8 23.1734 59.4268 23.8002 60.2 23.8002Z" fill="white"/>
</g>
<defs>
<clipPath id="clip0">
<rect width="84" height="84" fill="white" transform="translate(0 0.000244141)"/>
</clipPath>
</defs>
</svg>
