<svg xmlns="http://www.w3.org/2000/svg" xmlns:xlink="http://www.w3.org/1999/xlink" viewBox="0 0 62 91"><defs><path id="7utca" d="M444.586 846.704l-.507 8.497c-.052.861-.131 1.613-.587 2.09-.559.585-1.605.65-2.628.666l-5.654.088.45-12.017c.013-.347-.273-.638-.638-.65-.364-.01-.672.259-.686.605l-.452 12.083-18.251.284.071-9.804c.01-.004.02-.008.029-.014l7.21-4.37c.948-.575 1.83-1.174 2.185-2.173.347-.978.046-2.163-.786-3.09-.406-.453-.891-.813-1.387-1.124l5.523-2.595a.615.615 0 0 0 .322-.793l-3.637-8.772 13.783 9.797c1.875 1.333 4 2.843 4.99 4.963.911 1.954.772 4.279.65 6.329zm-31.368-4.445a9.754 9.754 0 0 1-.175-.443c-.08-.224-.154-.453-.16-.69-.011-.422.195-.772.371-1.144.15-.317.318-.63.48-.946.103-.199.818-1.798.883-1.8l.653-.027c.014.017.027.035.044.05l.892.869.704.684c.18.175.568.431.596.678.016.136-.032.273-.078.403-.357.996-.76 1.968-1.088 2.967-.345 1.05-.71 2.093-1.067 3.138.071-.21-.595-1.147-.708-1.37-.234-.465-.563-.875-.825-1.327a9.342 9.342 0 0 1-.522-1.042zm2.055 3.74zm-.965 12.372l-20.04.313c.004-.029.008-.057.008-.086l.02-12.856c0-.347-.297-.629-.662-.629h-.001c-.366 0-.663.28-.663.627l-.018 12.855a.58.58 0 0 0 .011.109l-2.256.035c-1.67.028-3.384-.03-4.386-1.011-.95-.931-1.012-2.482-.994-3.99l.114-9.495c.022-1.821.046-3.887 1.005-5.539.875-1.506 2.497-2.597 3.929-3.56 2.655-1.787 5.12-3.694 7.505-5.54 1.954-1.512 3.965-3.065 6.08-4.553l-3.842 10.982a.604.604 0 0 0 .177.657c.19.168.464.216.703.122a8.623 8.623 0 0 1 3.55-.56l-1.916 3.042c-.24.382-.604.958-.546 1.622.1 1.178 1.378 1.782 1.923 2.04l10.375 4.906zm-9.056-33.023a129.923 129.923 0 0 0 8.67 20.89l-9.323-4.407c-.537-.254-1.158-.6-1.194-1.017-.02-.243.152-.54.364-.876l2.439-3.873a.6.6 0 0 0 .034-.582.654.654 0 0 0-.484-.358 10.022 10.022 0 0 0-3.97.125zm-5.975-8.888a.662.662 0 0 0-.448-.308.689.689 0 0 0-.538.122c-1.017.76-2.6.826-3.684.155-1.083-.671-1.656-2.073-1.333-3.262.302-1.11 1.383-2.022 2.576-2.212.444.399 1.023.671 1.787.726.118.009.232.013.347.013 1.92 0 3.516-1.137 4.57-2.016 3.338-2.785 5.705-6.622 6.672-10.74 1.379 1.767 3.809 2.919 6.358 2.857 2.37-.058 4.752-1.03 6.83-2.764a15.165 15.165 0 0 0 3.399 8.426c1.21 1.482 2.455 2.329 3.805 2.588 1.533.294 3.203-.236 4.397-1.34 1.615.868 2.383 2.984 1.642 4.603-.759 1.656-2.994 2.576-4.787 1.97a.677.677 0 0 0-.818.315c-2.759 5.355-8.832 9.07-15.112 9.247-6.279.176-12.573-3.191-15.663-8.38zm-2.75-17.665c1.61-3.118 4.599-5.759 8.415-7.436 2.873-1.262 6.059-1.905 9.239-1.905 2.075 0 4.149.274 6.13.827 5.02 1.402 9.505 4.612 12.306 8.806 1.004 1.502 1.594 2.852 1.808 4.127.255 1.53-.058 3.018-.86 4.08-.867 1.15-2.381 1.78-3.684 1.528-1.025-.196-2.013-.892-3.022-2.127-2.116-2.591-3.238-5.824-3.158-9.102a.627.627 0 0 0-.414-.597.686.686 0 0 0-.735.156c-2.042 2.096-4.594 3.332-7.003 3.392-2.75.072-5.33-1.546-6-3.754a.661.661 0 0 0-.69-.452.648.648 0 0 0-.605.551c-.572 4.525-2.969 8.845-6.575 11.854-.937.78-2.366 1.809-3.942 1.695-1.369-.098-1.754-1.41-2.147-3.25-.042-.194-.082-.383-.124-.563-.588-2.533-.202-5.388 1.06-7.83zm3.735-9.228l-.235-3.296c-.035-.485-.071-.988.086-1.394.272-.7 1.103-1.14 1.96-1.51 7.483-3.238 16.242-3.658 24.03-1.152.643.207 1.36.468 1.72.954.346.465.383 1.136.395 1.9l.062 4.103c-4.163-2.517-9.137-3.864-14.074-3.796-4.934.07-9.863 1.558-13.944 4.19zm13.961-3.473c4.957-.072 9.957 1.33 14.08 3.938l.042 2.777a23.805 23.805 0 0 0-7.652-3.733c-5.325-1.486-11.268-1.07-16.306 1.142a21.314 21.314 0 0 0-3.919 2.234l-.147-2.055c4.031-2.704 8.965-4.232 13.902-4.303zm-15.352-1.652c-.255.658-.205 1.355-.166 1.914l.167 2.342-9.854-6.128 24.901-9.839 26.07 11.573c-1.11.475-2.204.945-3.282 1.408-2.295.986-4.666 2.003-7.109 3.032l-.055-3.694c-.012-.753-.027-1.785-.636-2.604-.59-.796-1.537-1.151-2.378-1.421-8.105-2.608-17.219-2.171-25.005 1.199-1.065.46-2.213 1.084-2.653 2.218zm-9.312 5.94c.263.066.495.368.643.61.83 1.355 1.052 3.014 1.158 4.55.026.389.042.777.052 1.167.007.309.095.75.01 1.048-.099.344-.516.205-.863.237l-1.579.15c-.229.023-1.12.225-1.31.027-.04-.042-.062-.191-.064-.445a37.906 37.906 0 0 1 .26-4.818c.11-.926.293-1.95 1.076-2.381.248-.137.455-.186.617-.145zm-1.306-8.297l-.883-.549 25.842-11.06.306 1.635zm54.712.965l-2.056.875-26.627-11.824v-.014l-.298-1.593zm-25.315 51.32l.994 1.11a.658.658 0 0 0 .18.14l-.836 2.442-1.413-1.375zm-5.8.497l1.487 2.055c-.225.53-.491 1.069-.75 1.592-.16.327-.325.66-.482.996a128.606 128.606 0 0 1-1.383-3.131zm-1.978-5.707a9.11 9.11 0 0 0 3.756 1.132l-3.488 4.69a128.043 128.043 0 0 1-2.99-8.058c.791.912 1.706 1.668 2.722 2.236zm12.506-3.93l-3.09 9.03-3.633-4.062c.345-.06.684-.141 1.012-.248 2.545-.825 4.35-2.934 5.711-4.72zm-6.139 3.531c-1.776.575-3.904.32-5.694-.682-1.66-.93-2.76-2.285-3.462-3.47 2.331.963 4.855 1.494 7.388 1.494a19.016 19.016 0 0 0 6.488-1.17c-1.396 1.77-2.815 3.21-4.72 3.828zm-.068 4.085c.185.245.315.506.274.844-.067.557-.452 1.134-.689 1.642-.038.084-.322.88-.412.888l-.871.066c-.266-.368-.573-.7-.843-1.06-.104-.138-1.002-1.41-.97-1.454.671-.901 1.412-1.789 2.02-2.723.426.474.802.98 1.215 1.463.096.112.191.222.276.334zm11.174 1.464l-6.06 2.847a.63.63 0 0 0-.368.544.623.623 0 0 0 .331.564c.758.414 1.542.842 2.085 1.448.525.585.736 1.32.54 1.874-.218.613-.873 1.05-1.643 1.516l-5.77 3.498 7.224-21.12zm17.801 5.557c-1.129-2.42-3.5-4.106-5.406-5.46l-15.422-10.963c-.025-.018-.052-.03-.079-.045l-.006-.012c2.824-1.66 5.207-3.998 6.757-6.772 2.325.486 4.92-.71 5.88-2.806.988-2.156.063-4.857-2.016-6.096.844-1.295 1.165-2.986.879-4.702-.243-1.447-.895-2.953-1.997-4.601a22.229 22.229 0 0 0-4.078-4.555.583.583 0 0 0 .015-.139l-.054-3.61c.014-.004.028-.006.042-.013 2.617-1.1 5.147-2.187 7.592-3.237 2.443-1.05 4.97-2.135 7.582-3.233a.628.628 0 0 0 .394-.57.625.625 0 0 0-.387-.576l-30.988-13.42a.695.695 0 0 0-.547-.001l-27.581 11.815a.631.631 0 0 0-.388.525.618.618 0 0 0 .297.574l2.554 1.587a.606.606 0 0 0-.044.25l.256 5.568c-.043.021-.086.042-.129.065-1.422.786-1.617 2.44-1.722 3.327a39.19 39.19 0 0 0-.27 4.971c.004.302.01.865.415 1.283.359.37.852.452 1.253.452.21 0 .394-.022.52-.037l3.686-.452a.642.642 0 0 0 .577-.618c.027-2.93-.122-5.93-1.39-8.004-.398-.651-.885-1.054-1.447-1.195a1.946 1.946 0 0 0-.179-.034l-.218-4.762 9.488 5.898.226 3.172c-1.637 1.404-2.959 3.027-3.874 4.796-1.412 2.732-1.826 5.804-1.164 8.65.04.173.079.355.118.542.158.734.352 1.638.746 2.424-1.452.438-2.662 1.59-3.045 3-.467 1.714.329 3.66 1.891 4.627 1.352.838 3.18.882 4.598.17 1.469 2.248 3.506 4.15 5.866 5.579-2.578 1.747-4.98 3.603-7.304 5.402-2.367 1.832-4.815 3.726-7.435 5.488-1.547 1.041-3.3 2.22-4.321 3.98-1.12 1.927-1.148 4.258-1.17 6.13l-.115 9.495c-.02 1.77.067 3.604 1.368 4.878 1.247 1.22 3.11 1.398 4.847 1.398.172 0 .343-.002.512-.005l43.75-.682.02.002h.025c.016 0 .032-.003.048-.004l6.314-.098c1.256-.02 2.673-.121 3.588-1.08.745-.78.863-1.798.927-2.861l.507-8.497c.13-2.192.279-4.677-.762-6.908z"/></defs><g><g transform="translate(-384 -769)"><use fill="#efeee5" xlink:href="#7utca"/></g></g></svg>