<svg xmlns="http://www.w3.org/2000/svg" xmlns:xlink="http://www.w3.org/1999/xlink" viewBox="0 0 90 76"><defs><path id="qkzca" d="M223.948 822.954a5.074 5.074 0 0 1-.961-.34c-1.57-.744-2.62-2.314-2.616-3.906.002-.71.334-1.54.945-1.675a.799.799 0 0 1 .179-.02c.293 0 .625.142.887.386.37.346.602.848.761 1.247.552 1.378.772 2.836.805 4.308zm8.578 1.8c.873-1.765 1.955-3.712 3.685-4.87.613-.411 1.465-.635 1.836-.24.335.356.171 1.068.085 1.358-.583 1.963-2.365 3.513-4.336 3.767a4.602 4.602 0 0 1-1.27-.015zm4.053 5.804c-1.792.982-3.645 1.997-4.737 3.796-.436.719-.706 1.5-.966 2.254-.23.666-.446 1.294-.766 1.869-.706 1.273-1.983 2.24-3.401 2.647a74.362 74.362 0 0 1 5.307-15.317c.63.133 1.283.166 1.927.084 2.405-.311 4.578-2.19 5.284-4.57.303-1.02.18-1.89-.346-2.448-.854-.908-2.278-.617-3.31.074-2.013 1.348-3.196 3.526-4.146 5.463l-.02.04a4.853 4.853 0 0 1-1.946-1.411c1.291-.804 2.414-1.972 3.288-3.43.307-.512.627-1.131.68-1.846.064-.836-.302-1.63-.932-2.021-.718-.447-1.711-.368-2.657.21-2.129 1.303-3.03 4.258-2.01 6.588l.028.06a6.447 6.447 0 0 1-2.77.515c-.022-1.652-.254-3.318-.882-4.885-.203-.508-.505-1.155-1.039-1.653-.604-.564-1.39-.806-2.1-.647-1.257.28-1.833 1.635-1.836 2.775-.005 2.02 1.307 4 3.265 4.928.455.216.94.375 1.443.478-.064 1.677-.322 3.351-.564 4.927l-1.714 11.115c-.677-.484-1.159-1.1-1.176-1.825-.012-.537.145-1.095.313-1.685.175-.621.357-1.263.363-1.954.013-1.54-.393-3.011-1.174-4.256-.702-1.118-1.657-2.021-2.58-2.894-.723-.684-1.405-1.33-1.979-2.071-2.34-3.023-2.693-7.636-.948-12.339 1.607-4.328 4.467-7.807 8.053-9.8 2.294-1.273 4.918-1.91 7.542-1.91 2.663 0 5.326.656 7.644 1.966 4.603 2.6 7.657 7.67 7.779 12.916.122 5.246-2.692 10.45-7.17 13.257-.556.349-1.161.68-1.747 1zm-5.134-13.974c.161 0 .313.034.443.115.314.196.427.634.402.982-.037.482-.286.956-.525 1.355-.764 1.278-1.771 2.33-2.898 3.043-.776-1.804-.06-4.164 1.572-5.164.296-.182.67-.33 1.006-.33zm-.518 8.88a75.448 75.448 0 0 0-5.378 15.623.548.548 0 0 0 0 .238c-.084.005-.168.01-.252.012h-.04c-.698 0-1.658-.209-2.535-.591l1.781-11.539c.236-1.525.498-3.223.568-4.963a7.63 7.63 0 0 0 3.37-.66l.008-.004a6.027 6.027 0 0 0 2.478 1.885zm-1.55 18.897c-3.417.878-7.23-.034-9.845-2.394-.768-.693-1.233-1.378-1.392-2.045-.011-.433.08-.869.277-1.255.22-.428.564-.789.975-1.042-.035.239-.056.481-.05.728.064 2.724 3.852 4.114 5.912 4.114h.053c1.691-.02 3.328-.711 4.547-1.849.54.601.773 1.483.58 2.264-.146.595-.541 1.13-1.057 1.479zm-4.204 3.785a10.91 10.91 0 0 1-6.872-2.53c-.917-.774-1.416-1.515-1.525-2.266-.065-.445.069-.945.348-1.306.098-.126.245-.271.44-.364a8.306 8.306 0 0 0 4.69 4.412c.912.335 1.881.5 2.85.5 1.15 0 2.3-.237 3.353-.696.094.573-.24 1.235-.712 1.596-.584.446-1.424.662-2.572.654zm-8.097-2.11c.15.148.31.294.484.441 2.09 1.764 4.862 2.784 7.607 2.8h.056c.195 0 .383-.007.565-.019-1.485 1.433-3.61 1.951-5.418 1.22-1.812-.73-3.086-2.531-3.294-4.441zm9.69-.7c.5 0 .998-.035 1.493-.1 0 .015-.002.031 0 .047a7.763 7.763 0 0 1-5.773.203 7.653 7.653 0 0 1-4.311-4.039c.246.334.552.667.918.997 2.082 1.876 4.876 2.891 7.673 2.891zm-46.321-20.275c-1.018-1.814-2.065-3.676-3.323-5.4a.554.554 0 0 0 .024-.135l1.461-37.45c.059-1.506.198-3.05 1.174-3.928.934-.84 2.375-.876 3.894-.838l38.026.957c1.289.033 2.609.132 3.351.935.71.768.732 2.025.693 3.246l-.586 18.562c-1.102.33-2.17.773-3.177 1.333-3.825 2.124-6.867 5.816-8.568 10.396-1.882 5.068-1.465 10.083 1.113 13.416.628.812 1.375 1.517 2.098 2.2.911.863 1.774 1.678 2.399 2.674.667 1.062 1.013 2.324 1.002 3.65-.004.514-.144 1.03-.297 1.574a3.829 3.829 0 0 0-2.323 1.903 3.77 3.77 0 0 0-.316 2.498 2.363 2.363 0 0 0-.863.702 2.905 2.905 0 0 0-.48 2.589c-7.04.146-16.16.33-25.417.494a31.027 31.027 0 0 0-.297-.724c-2.738-6.454-6.22-12.656-9.588-18.654zm7.332 25.517c-.667.05-1.398-.267-2.007-.875-.595-.592-1.018-1.375-1.427-2.13l-.468-.865c.066.002.132.005.198.005.935 0 1.864-.228 2.695-.669a5.676 5.676 0 0 0 2.161-2.02l.057.129c.563 1.326 1.057 2.623.93 3.919-.117 1.16-.947 2.414-2.139 2.506zm-6.403-6.05a9.26 9.26 0 0 1-.66.039c-1.618.033-3.218-.081-3.957-1.139-.476-.682-.48-1.615-.44-2.677.044-1.1.086-2.409.127-3.674l.053-1.621 4.919 9.069-.042.003zm-9.205-22.754a2.6 2.6 0 0 0 .67-.765l11.276 20.03a5.063 5.063 0 0 1-2.76.716.585.585 0 0 0-.148.017l-7.914-14.64c-.846-1.564-1.714-3.171-2.345-4.85a2.641 2.641 0 0 0 1.221-.508zm-1.858-7.109l.41.327c.274.217.549.437.824.658a1.855 1.855 0 0 1-1.358.847c.023-.396.051-.797.08-1.202l.044-.63zm3.948 5.081c-.354.25-.939.182-1.226-.14a.574.574 0 0 0-.994.3c-.05.377-.261.74-.565.972a1.526 1.526 0 0 1-.9.301l-.064-.212c-.354-1.237-.403-2.506-.354-3.82a2.5 2.5 0 0 0 1.898-1.084c1.017.833 2.008 1.71 2.874 2.68.054.283-.277.726-.67 1.003zm10.393 20.919l-11.058-19.643c.464.032.938-.08 1.327-.355a3.14 3.14 0 0 0 .857-.899c1.407 1.82 2.555 3.86 3.668 5.842 2.321 4.135 4.696 8.366 6.838 12.702a4.976 4.976 0 0 1-1.632 2.353zm-1.753 4.238a5.559 5.559 0 0 0 3.2-.687 5.487 5.487 0 0 0 2.035-1.99l.203.455a.565.565 0 0 0-.057.105 4.582 4.582 0 0 1-2.056 2.262 4.654 4.654 0 0 1-3.001.453zm4.892-3.43a4.9 4.9 0 0 1-2.013 2.182 4.968 4.968 0 0 1-3.207.556.294.294 0 0 0-.048-.004l-.166-.306a5.563 5.563 0 0 0 3.24-.793 5.492 5.492 0 0 0 1.969-2.122l.225.486zm-2.7.287a6.133 6.133 0 0 0 1.842-2.095l.26.548a4.834 4.834 0 0 1-1.946 2.353 4.86 4.86 0 0 1-3.224.661c-.012-.002-.024-.001-.037-.002l-.18-.334a6.186 6.186 0 0 0 3.284-1.131zm53.192-39.358c-3.594-2.03-7.959-2.595-11.981-1.694l.574-18.225c.046-1.454.007-2.963-.99-4.044-1.046-1.13-2.698-1.264-4.165-1.302l-38.018-.958c-1.69-.041-3.444.01-4.69 1.133-1.304 1.173-1.48 2.975-1.548 4.72l-1.414 36.267c-.046-.055-.093-.107-.14-.16l-.018-.038a.564.564 0 0 0-.183-.19c-1.29-1.427-2.803-2.633-4.274-3.8-.418-.333-.85-.677-1.27-1.019a.577.577 0 0 0-.596-.08.566.566 0 0 0-.337.493 57.216 57.216 0 0 1-.105 1.71c-.141 1.997-.288 4.062.283 6.06.652 2.278 1.782 4.369 2.875 6.39l3.14 5.807c-.043 1.08-.083 2.344-.123 3.57-.04 1.265-.083 2.573-.126 3.671-.038.978-.09 2.318.64 3.366.966 1.386 2.761 1.632 4.48 1.632.144 0 .288-.001.432-.004.319-.007.53-.025.734-.043.164-.013.321-.027.534-.034l1.338 2.475c.427.79.91 1.684 1.62 2.394.782.78 1.746 1.216 2.677 1.216.076 0 .152-.004.228-.01 1.383-.107 2.969-1.378 3.181-3.523.089-.893-.061-1.77-.318-2.619 9.197-.163 18.231-.346 25.198-.49-.181 2.686 1.484 5.43 4.018 6.453.69.279 1.415.412 2.142.412 2.071 0 4.15-1.083 5.435-2.977.017-.025.03-.052.042-.078.326-.132.622-.295.886-.497 1.003-.767 1.31-1.913 1.106-2.82.979-.465 1.734-1.363 1.994-2.416a3.657 3.657 0 0 0-.924-3.377c.18-.238.345-.489.492-.752.366-.66.61-1.365.844-2.047.253-.732.49-1.422.865-2.038.934-1.538 2.574-2.437 4.31-3.388.6-.329 1.221-.669 1.806-1.035 4.809-3.015 7.831-8.604 7.7-14.239-.131-5.634-3.41-11.08-8.354-13.872z"/><path id="qkzci" d="M223.428 798.1l2.889 2.737a.585.585 0 0 0 .85-.045.653.653 0 0 0-.043-.892l-2.888-2.737a.583.583 0 0 0-.85.045.654.654 0 0 0 .042.892z"/><path id="qkzcb" d="M223.597 798.447l2.723 2.506a.56.56 0 0 0 .803-.042.585.585 0 0 0-.041-.816l-2.723-2.506a.561.561 0 0 0-.802.041.586.586 0 0 0 .04.817z"/><path id="qkzck" d="M223.973 798.015l.159-.177-.158.178-.44.498-.002-.002.042-.047.4-.45zm-1.203 1.354l.814-.924-.815.924a1.85 1.85 0 0 1-.127-2.577l1.331 1.223-.41.463zm-.128-2.577a1.771 1.771 0 0 1 2.532-.133l-.76.86-.44.496zm5.257 2.375c.735.676.792 1.83.128 2.578l-.909-.836.05.046-.05-.046.909.837c-.355.4-.845.601-1.33.601v-1.825l.44-.497zm-1.643 1.851zm0 0l-.76.859h-.002l.762-.859.058-.065-.058.065zm0 0l.821-.926-.821.926.06-.067-.002.002.002-.002-.06.067zm-2.722-2.504l.005.004a.46.46 0 0 1-.005-.004zm3.633 2.44l.86.791zm-4.399-1.585v.001h.002l-.001-.001z"/><path id="qkzcl" d="M217.601 803.5z"/><path id="qkzcm" d="M213.554 811.586zm2.958-.113l-.173.032a6.381 6.381 0 0 0-2.746.136l1.369.116-1.164.212a.854.854 0 0 1-.227.031c-.226 0-.441-.089-.535-.236-.125-.196.013-.422.308-.505a7.317 7.317 0 0 1 3.32-.126zm-1.55.284l1.377-.252c.05.008.099.017.147.027l-.15.34zm1.38.116l.15-.341zm.15-.341l.004-.01-.004.01zm.013-.029l-.009.02zm0 0l.163-.37-.163.37zm.165-.37c.306.062.481.279.39.485-.09.207-.411.324-.716.264z"/><path id="qkzcn" d="M202.261 820a.58.58 0 0 0 .193-.033l3.05-1.077c.268-.095.398-.363.291-.6-.106-.236-.41-.351-.677-.257l-3.05 1.077c-.267.095-.397.363-.29.6.08.18.276.29.483.29z"/><path id="qkzcc" d="M201.402 820.085a.569.569 0 0 0 .22-.044l3.461-1.441a.626.626 0 0 0 .33-.802.584.584 0 0 0-.769-.344l-3.462 1.44a.626.626 0 0 0-.33.802.592.592 0 0 0 .55.389z"/><path id="qkzcp" d="M199.665 820.192h-.002c-.381-1 .084-2.136 1.043-2.535l.002.003h-.002l.692 1.813-.55.231.55-.23.252.66-.252-.66.001-.001.253.66-.001.001.436 1.145a1.796 1.796 0 0 1-.688.138c-.739 0-1.441-.462-1.734-1.225zm1.043-2.532l3.452-1.441.431 1.13.007.017-3.365 1.405a.656.656 0 0 0-.09.03l.003.006zm.438 1.147l.251.659.002.002v.002l.219.574-.22-.578-.027-.07-.226-.595h-.001zm3.445-1.458l-.426-1.13.43 1.141zm.007.017l-.002-.006zm0 0l.007-.003.054.142.2.522.001.004h.001l-.001-.004.002.004.118.31.314.823.257.68-3.46 1.444-.004-.01.005-.001-.438-1.144a.696.696 0 0 0 .025-.011l-.025.01-.253-.66.634-.267-.634.267-.001-.003.635-.264a.728.728 0 0 1-.356.917l3.343-1.395a.679.679 0 0 1-.798-.43l.63-.263-.002-.004-.628.262a.726.726 0 0 1 .374-.926l.036.096-.036-.096zm.955 2.476l-.081-.212zm-4.154-.37v.001l-.254-.665.252.658.002.004zm0-.006v.002l-.001-.002zm3.706-.774l-.083.035a.67.67 0 0 0 .092-.03l-.254-.666-.007.003zm-3.07.509l-.636.264v-.715c.27 0 .528.168.636.45zm2.134-2.982c.955-.398 2.041.086 2.425 1.086l-1.734.722-.253-.665-.002.001zm2.425 1.086h.002c.382 1-.086 2.134-1.041 2.534l-.33-.861-.145-.381.102.27-.202-.527-.118-.31 1.734-.721-.002-.004zm-1.989.058a.684.684 0 0 0-.007.003l.254.664.007-.002-.2-.523zm-3.207 2.11zm0-.007l-.027-.07-.192-.505zm3.2-2.1zm.953 2.477h.002l.002.005-.002.001zm-.369-.975l.042.11.248.652-.178-.466z"/><path id="qkzcq" d="M207.5 827.716l-.019-.032-.238-.4.239.4.018.031z"/><path id="qkzcr" d="M234.992 798.5z"/><path id="qkzcs" d="M244.034 796.416l.043.02h.001l.543.26zm.587.286c.178-.244.08-.558-.22-.702l-2.761 2.76.5.24 1.894-2.58z"/><path id="qkzct" d="M247.341 802a.616.616 0 0 0 .34-.101l2.932-1.941a.5.5 0 0 0 .129-.74.617.617 0 0 0-.81-.117l-2.933 1.942a.5.5 0 0 0-.128.739.6.6 0 0 0 .47.218z"/><path id="qkzcd" d="M246.792 802.507c.12 0 .242-.035.347-.11l2.989-2.121a.57.57 0 0 0 .13-.808.6.6 0 0 0-.825-.127l-2.99 2.12a.57.57 0 0 0-.13.808.595.595 0 0 0 .48.238z"/><path id="qkzcv" d="M245.28 803.006l-.004.003a1.802 1.802 0 0 1 .413-2.55l.913 1.233.175.24v.002h.001l.004.004-.005.004v.002l-.466.333.466-.333v1.808a1.863 1.863 0 0 1-1.497-.746zm1.497-1.077v.002l-.161-.22zm.003.003l.003.005-.001.001-.004-.005zm-.003-.01l-.35-.47-.04-.057h-.001l-.695-.936 2.987-2.12.697.938a.967.967 0 0 0-.003.003l-.005-.006-2.96 2.108a.687.687 0 0 0-.02.013l.147.197.243.328zm-.37-.54a.695.695 0 0 1 .37-.115v.652l-.243-.327-.146-.197zm2.965-2.102l.4.54-.545.388.545-.388.004-.002-.003.003.4.54-.04.028a.694.694 0 0 0 .04-.026l.69.93-2.98 2.12-.005-.006.003-.002-.69-.928 2.942-2.088a.693.693 0 0 1-.907-.18v-.001a.66.66 0 0 1 .146-.928zm.404.538zm-.03-.04l.03.04zm-.371-.5l.004-.003.028.039.372.5-.003.003-.344-.469.314.43zm.405.537l-.004.002.004-.002zm-.004.002v.001l.038.052.358.487-.396-.538v-.001zm-1.898 3.59a1.883 1.883 0 0 1-1.09.345v-1.804l.39.53-.39-.53v-.003l.396.534.004-.003-.4-.538v-.002l.4.54.002-.001.002.002-.001.001zm1.5-4.132l-.694-.936c.833-.593 2-.412 2.604.405l-1.508 1.07.474-.338-.475.338-.372-.5zm-2.187 3.203l-.002-.002.001.003zm-.403-.544l.549-.39-.548.391zm.402.54l-.4-.539.547-.39a.66.66 0 0 1-.147.93zm-.401-.538zm-.002-.001l-.004-.005.005.004zm-.003-.006l-.007-.01.007.01zm-.007-.662h.006-.006zm.55.276l-.538.383v-.659a.685.685 0 0 1 .537.276zm2.453-1.728l.402.542a.756.756 0 0 1-.008.006l-.002-.002.005-.003-.363-.488-.037-.052.003-.002v-.001zm0 0l1.509-1.072c.605.817.419 1.957-.412 2.55l-.431-.582.429.582h.001l-.746-1.01.316.428-.264-.354zm-3 2.117l-.003-.003v-.004l.004.006zm-.003-.01l.006.008h-.001l-.005-.006zm.006.015l.002-.001.001.001-.002.001zm.004-.002v.001h-.002zm.002.003v.002l-.003-.003h.002zm0 .007l-.005-.006.002-.002.003.004zm0-.678h-.006.006zm-.005.662l.005-.003v.007zm.553-.385zm-.553.394l-.001.001zm-.007.006l.006-.005zm.012-.009zm-.001.001zm-.172-.225l-.014-.019-.163-.223zm.162.222l-.001-.002zm.005.006h-.001zm0 0l.006.008zm2.992-2.122l-.003.003zm0 0h.001zm.004-.003zm-2.648 2.59l-.342-.464zm-.745-1.009l.39.53-.348-.474-.042-.056zm.396.536l.003.005zm.004.006z"/><path id="qkzcw" d="M251.431 807c.09 0 .181-.023.267-.07a5.535 5.535 0 0 1 2.663-.69c.321-.001.581-.278.581-.62 0-.343-.26-.62-.58-.62h-.001a6.66 6.66 0 0 0-3.197.83.64.64 0 0 0-.249.834.576.576 0 0 0 .516.336z"/><path id="qkzce" d="M251.438 806.8a.535.535 0 0 0 .26-.069 5.335 5.335 0 0 1 2.604-.687c.314-.001.568-.277.568-.618 0-.34-.255-.616-.568-.616a6.419 6.419 0 0 0-3.125.825c-.278.156-.388.529-.243.831.1.212.298.334.504.334z"/><path id="qkzcy" d="M249.84 807.076c-.454-.956-.109-2.13.771-2.622l.312.657-.312-.658a7.566 7.566 0 0 1 3.685-.973v1.331-.097c-1.097 0-2.19.289-3.164.836l-.209-.44.209.44.017.035.029.061-.005-.01.26.548-.502.282.503-.28v.002l-.505.286.507-.285.298.63-.298-.63.002-.001.259.549-.003-.005.558 1.185a1.683 1.683 0 0 1-.818.215c-.647 0-1.276-.384-1.594-1.056zm4.457-2.362v-.012zm-3.12.932l.256.538v.001l.002.003v.001l.3.63-.3-.63v-.001l-.001-.003-.001-.001zm3.12-.932v-1.234c.991 0 1.792.872 1.794 1.944l-1.793.004v.002h1.793c0 1.08-.803 1.953-1.791 1.955l-.002-1.34v.046l-.002-.662v-.001h.001zm.003 2.671h-.002v-1.294l.002 1.294zm1.79-1.96v.002h-1.224zm-4.656.754l.003.007-.002.002-.001-.003zm-.001.005v.001-.001zm2.207-.755c0-.396.295-.715.655-.715l.001.715zm-2.503.118a.612.612 0 0 1 .297-.077v.709zm.301.64l.58-.33.001.004zm-.003 0v.002-.001zm2.862-1.485v-1.222zm-2.04 3.212l-.56-1.177.555 1.18z"/><path id="qkzcz" d="M252.902 814.39c-.028.233.231.437.577.456l2.834.153a.848.848 0 0 0 .05.001c.326 0 .601-.168.627-.39.028-.233-.23-.437-.577-.456L253.58 814c-.345-.018-.65.156-.678.389z"/><path id="qkzcf" d="M253.142 814.556c-.026.254.217.477.543.497l2.663.167a.689.689 0 0 0 .048.002c.305 0 .564-.184.589-.426.026-.255-.218-.478-.543-.498l-2.663-.167c-.324-.019-.611.17-.637.425z"/><path id="qkzcB" d="M253.888 813.145h.001-.001zm2.659.166l-.095.918-2.626-.163a.89.89 0 0 0-.028-.002h-.003l.094-.92zm-2.756.753l-.055.534-1.86-.116c.087-.808.994-1.399 2.012-1.338h-.003l-.09.92zm-.055.534h.007l-.056.54h-.002l.009-.083-.009.082h-.004l.054-.534-.148 1.444h.005l-.001.01c-1.028-.066-1.798-.77-1.715-1.575v.004l1.86.117zm-.142 1.45l-.001.009h-.002l.001-.01zm2.858-1.819h0l-.052.504v.032h-.002v.002h-.001v-.003l-.684-.042c.029-.281.329-.494.685-.494v.532l.002-.027v-.505a.93.93 0 0 1 .052.002zm-.052.528l.054-.527-.008.082.008-.082h.005l-.057.535h-.002zm.002.008l.054-.504.003-.03-.005-.001h.005l-.003.028v.003l-.003.028-.049.476h-.002v.002-.002zm0 .002h-.002v.002-.004.002zm0 .002h.002l-.004.03v-.02l-.002.024v.023l-.05.478h-.004l-.097.909-2.653-.165.093-.91h.005l.052-.535.683.043c-.03.294-.35.506-.713.493l2.603.163c-.364-.033-.634-.286-.604-.576l.684.043-.055.535h.002l.01-.086-.002.013.046-.43v-.017l-.045.434.045-.415v-.001l.002-.026v.002l.001-.009v-.002zm-.004 0h-.001v-.002.002h.002l-.001.015zm.058-.51l.003-.029.094-.919h-.004c1.028.065 1.797.769 1.714 1.575v-.005l-1.859-.116.049-.476zm.09-.948h.002zm-.146 1.49l-.002.027v1.4a2.4 2.4 0 0 1-.152-.005v-.01h.009l.094-.909.049-.476v-.002l.002-.027zm.004-.036v.002-.002zm0 .004l1.859.117c-.081.763-.898 1.34-1.863 1.342v-1.426l.004-.033v-.002zm-.006 1.459h0zm-2.684-1.089l-.022-.001.022.001zm2.628.165l-.025-.002a.88.88 0 0 0 .025.002zm.056-.54v-.004.004zm.001 1.464h.001zm.002-1.459v.007-.007zm-2.603-.705l.028.002c.362.034.63.286.6.576l-.683-.043zm-.003 0l-.008.082zm2.66.166zm.094-.92zm0 .001l-.095.919zm-.145 1.456l.579.037zm-.007 0l-.684-.043zm.007 0h-.002zm-.006 0h.001zm-2.807 1.29zm.094-.92l-.093.91z"/><path id="qkzcC" d="M239.603 829l-.003.037c1.098.041 2.191.326 3.07.798z"/><path id="qkzcD" d="M243.289 835.557l-2.204-2.02.384-.377-.384.377-.033.032-.417.41.384-.378v.001l.066-.064.384-.378 1.82 2.397.001.001-.032.032.431.395-.43-.395h-.001l-.033.033-.385.377.383-.378-2.203-2.02zm-2.67-2.383a.615.615 0 0 1 .842-.014z"/><path id="qkzcE" d="M246.41 822.123l-2.808-1.07c-.315-.119-.703-.032-.868.195-.165.228-.044.51.27.629l2.808 1.069a.835.835 0 0 0 .298.054c.23 0 .454-.09.568-.25.166-.226.045-.507-.269-.627z"/><path id="qkzcg" d="M246.283 822.598l-2.586-1.417a.58.58 0 0 0-.8.258.63.63 0 0 0 .25.833l2.585 1.418a.566.566 0 0 0 .275.071c.213 0 .418-.12.524-.33a.63.63 0 0 0-.248-.833z"/><path id="qkzcG" d="M247.668 824.048h.001a1.858 1.858 0 0 1-1.655 1.045c-.298 0-.598-.075-.873-.226l.004.001.47-.933.078-.151h.002l.057-.112.263-.518.522.285-.393-.218.9.488-1.025-.563.318-.626-.004-.002.324-.643.228-.45c.909.499 1.263 1.671.783 2.623zm-1.916-.376l-.013.026.206-.41.012-.023.056-.112.002-.002.001.001-.001.002h-.001l-.057.111zm.267-.526l-.003.005h-.001l.002-.006.316-.627.004.002-.319.625zm.638-1.27l-.325.64.001.002-.316.627-.002-.001-.002.005.002.001-.07.139-.252.495.318-.632-.317.623a.728.728 0 0 1-.285-.965l.001.001a.67.67 0 0 1 .921-.294l.002-.003-2.555-1.4a.728.728 0 0 1 .257.943l-.047-.026.046.025a.67.67 0 0 1-.92.3l.316-.628.558.303-.557-.305.316-.628-.317.627-.002.001.001-.001.113-.224.205-.404-.065.126.064-.127.002.001.55-1.093 2.586 1.42zm-3.115-.375l-.018.035.06-.12.062-.122.036-.071-.097.193zm2.602 1.72l-.128-.069v-.001zm-2.715-1.496l.095-.19zm-1.654-.907c.482-.952 1.611-1.311 2.521-.815l-.04.079-.552 1.093.26-.513-.318.632-.218.43zm4.242 2.327l-.002.005.003-.005zm-.401.79l-.474.931-2.583-1.414.553-1.096h.002l-.004.008 2.583 1.42zm-2.504-1.58l.316-.629h.003v.002l-.002-.001zm.316-.629l-.868 1.722c-.915-.5-1.264-1.675-.786-2.623l1.13.618-.409-.225.932.508-.274.542.275-.542zm0 0v-.002zm-.933-.508l-.721-.393.001-.004zm1.803-1.214l-.002-.001-.04.079-.292.58z"/><path id="qkzcH" d="M189.46 782.47c10.78.02 24.007.04 34.786.06z"/><path id="qkzcI" d="M189.46 782.47c10.78.02 24.007.04 34.786.06"/><path id="qkzcJ" d="M189.46 786.47c10.78.02 24.007.04 34.786.06z"/><path id="qkzcK" d="M189.46 786.47c10.78.02 24.007.04 34.786.06"/><path id="qkzcL" d="M189.46 790.47c10.78.02 24.007.04 34.786.06z"/><path id="qkzcM" d="M189.46 790.47c10.78.02 24.007.04 34.786.06"/><path id="qkzcN" d="M189.46 794.47c10.78.02 24.007.04 34.786.06z"/><path id="qkzcO" d="M189.46 794.47c10.78.02 24.007.04 34.786.06"/><path id="qkzcP" d="M187.42 799.426c6.658.048 14.828.1 21.486.148z"/><path id="qkzcQ" d="M187.42 799.426c6.658.048 14.828.1 21.486.148"/><path id="qkzcR" d="M187.42 803.426c6.658.048 14.828.1 21.486.148z"/><path id="qkzcS" d="M187.42 803.426c6.658.048 14.828.1 21.486.148"/><path id="qkzcT" d="M187.42 807.426c6.658.048 14.828.1 21.486.148z"/><path id="qkzcU" d="M187.42 807.426c6.658.048 14.828.1 21.486.148"/><path id="qkzcV" d="M187.42 811.426c6.658.047 14.828.1 21.486.148z"/><path id="qkzcW" d="M187.42 811.426c6.658.047 14.828.1 21.486.148"/><path id="qkzcX" d="M187.42 815.426c6.658.047 14.828.1 21.486.148z"/><path id="qkzcY" d="M187.42 815.426c6.658.047 14.828.1 21.486.148"/><path id="qkzcZ" d="M177.18 818.426c6.658.047 14.828.1 21.486.148z"/><path id="qkzcaa" d="M177.18 818.426c6.658.047 14.828.1 21.486.148"/><path id="qkzcab" d="M177.18 822.426c6.658.048 14.828.1 21.486.148z"/><path id="qkzcac" d="M177.18 822.426c6.658.048 14.828.1 21.486.148"/><clipPath id="qkzch"><use xlink:href="#qkzca"/></clipPath><clipPath id="qkzcj"><use xlink:href="#qkzcb"/></clipPath><clipPath id="qkzco"><use xlink:href="#qkzcc"/></clipPath><clipPath id="qkzcu"><use xlink:href="#qkzcd"/></clipPath><clipPath id="qkzcx"><use xlink:href="#qkzce"/></clipPath><clipPath id="qkzcA"><use xlink:href="#qkzcf"/></clipPath><clipPath id="qkzcF"><use xlink:href="#qkzcg"/></clipPath></defs><g><g transform="translate(-169 -776)"><g><g/><g clip-path="url(#qkzch)"><use fill="#efeee5" xlink:href="#qkzca"/><use fill="#fff" fill-opacity="0" stroke="#efeee5" stroke-miterlimit="50" stroke-width="2" xlink:href="#qkzca"/></g></g><g><use fill="#efeee5" xlink:href="#qkzci"/></g><g><g/><g clip-path="url(#qkzcj)"><use fill="#efeee5" xlink:href="#qkzck"/></g></g><g><use fill="#efeee5" xlink:href="#qkzcl"/><use fill="#fff" fill-opacity="0" stroke="#efeee5" stroke-miterlimit="50" xlink:href="#qkzcl"/></g><g><use fill="#efeee5" xlink:href="#qkzcm"/><use fill="#fff" fill-opacity="0" stroke="#efeee5" stroke-miterlimit="50" xlink:href="#qkzcm"/></g><g><use fill="#efeee5" xlink:href="#qkzcn"/></g><g><g/><g clip-path="url(#qkzco)"><use fill="#efeee5" xlink:href="#qkzcp"/></g></g><g><use fill="#efeee5" xlink:href="#qkzcq"/><use fill="#fff" fill-opacity="0" stroke="#efeee5" stroke-miterlimit="50" xlink:href="#qkzcq"/></g><g><use fill="#efeee5" xlink:href="#qkzcr"/><use fill="#fff" fill-opacity="0" stroke="#efeee5" stroke-miterlimit="50" xlink:href="#qkzcr"/></g><g><use fill="#efeee5" xlink:href="#qkzcs"/><use fill="#fff" fill-opacity="0" stroke="#efeee5" stroke-miterlimit="50" xlink:href="#qkzcs"/></g><g><use fill="#efeee5" xlink:href="#qkzct"/></g><g><g/><g clip-path="url(#qkzcu)"><use fill="#efeee5" xlink:href="#qkzcv"/></g></g><g><use fill="#efeee5" xlink:href="#qkzcw"/></g><g><g/><g clip-path="url(#qkzcx)"><use fill="#efeee5" xlink:href="#qkzcy"/></g></g><g><use fill="#efeee5" xlink:href="#qkzcz"/></g><g><g/><g clip-path="url(#qkzcA)"><use fill="#efeee5" xlink:href="#qkzcB"/></g></g><g><use fill="#efeee5" xlink:href="#qkzcC"/><use fill="#fff" fill-opacity="0" stroke="#efeee5" stroke-miterlimit="50" xlink:href="#qkzcC"/></g><g><use fill="#efeee5" xlink:href="#qkzcD"/><use fill="#fff" fill-opacity="0" stroke="#efeee5" stroke-miterlimit="50" xlink:href="#qkzcD"/></g><g><use fill="#efeee5" xlink:href="#qkzcE"/></g><g><g/><g clip-path="url(#qkzcF)"><use fill="#efeee5" xlink:href="#qkzcG"/></g></g><g><use fill="#efeee5" xlink:href="#qkzcH"/></g><g><use fill="#fff" fill-opacity="0" stroke="#efeee5" stroke-linecap="round" stroke-miterlimit="50" xlink:href="#qkzcI"/></g><g><use fill="#efeee5" xlink:href="#qkzcJ"/></g><g><use fill="#fff" fill-opacity="0" stroke="#efeee5" stroke-linecap="round" stroke-miterlimit="50" xlink:href="#qkzcK"/></g><g><use fill="#efeee5" xlink:href="#qkzcL"/></g><g><use fill="#fff" fill-opacity="0" stroke="#efeee5" stroke-linecap="round" stroke-miterlimit="50" xlink:href="#qkzcM"/></g><g><use fill="#efeee5" xlink:href="#qkzcN"/></g><g><use fill="#fff" fill-opacity="0" stroke="#efeee5" stroke-linecap="round" stroke-miterlimit="50" xlink:href="#qkzcO"/></g><g><use fill="#efeee5" xlink:href="#qkzcP"/></g><g><use fill="#fff" fill-opacity="0" stroke="#efeee5" stroke-linecap="round" stroke-miterlimit="50" xlink:href="#qkzcQ"/></g><g><use fill="#efeee5" xlink:href="#qkzcR"/></g><g><use fill="#fff" fill-opacity="0" stroke="#efeee5" stroke-linecap="round" stroke-miterlimit="50" xlink:href="#qkzcS"/></g><g><use fill="#efeee5" xlink:href="#qkzcT"/></g><g><use fill="#fff" fill-opacity="0" stroke="#efeee5" stroke-linecap="round" stroke-miterlimit="50" xlink:href="#qkzcU"/></g><g><use fill="#efeee5" xlink:href="#qkzcV"/></g><g><use fill="#fff" fill-opacity="0" stroke="#efeee5" stroke-linecap="round" stroke-miterlimit="50" xlink:href="#qkzcW"/></g><g><use fill="#efeee5" xlink:href="#qkzcX"/></g><g><use fill="#fff" fill-opacity="0" stroke="#efeee5" stroke-linecap="round" stroke-miterlimit="50" xlink:href="#qkzcY"/></g><g><use fill="#efeee5" xlink:href="#qkzcZ"/></g><g><use fill="#fff" fill-opacity="0" stroke="#efeee5" stroke-linecap="round" stroke-miterlimit="50" xlink:href="#qkzcaa"/></g><g><use fill="#efeee5" xlink:href="#qkzcab"/></g><g><use fill="#fff" fill-opacity="0" stroke="#efeee5" stroke-linecap="round" stroke-miterlimit="50" xlink:href="#qkzcac"/></g></g></g></svg>