<svg xmlns="http://www.w3.org/2000/svg" xmlns:xlink="http://www.w3.org/1999/xlink" viewBox="0 0 31 22"><defs><path id="7z0ya" d="M932.317 1282.962c-3.665-.361-7.373-.296-11.043-.033-.056.004-.058.094 0 .09 3.691-.187 7.343-.068 11.03.125a831.512 831.512 0 0 0-.227 3.028c-2.069.041-4.156.185-6.218.36-.042.004-.043.068 0 .068 2.062-.025 4.147-.085 6.205-.243-.042.571-.09 1.142-.128 1.713-.003.044-.004.095-.006.14-2.679-.087-5.362-.008-8.036.157-.084.005-.085.137 0 .134 2.677-.11 5.348-.112 8.026-.088-.041.889-.036 1.955-.105 3.043-4.09-.351-8.193-.156-12.245.496-.045.008-.035.09.011.083 4.085-.53 8.118-.627 12.224-.391-.033.456-.08.912-.15 1.356-3.413-.042-6.853.18-10.246.534-.05.005-.052.085 0 .082 3.405-.2 6.806-.304 10.212-.44a8.135 8.135 0 0 1-.309 1.249c-.012-.034-.035-.063-.08-.064-4.143-.108-8.317.015-12.445.392-.041.003-.043.068 0 .066a492.31 492.31 0 0 1 12.445-.264c.016 0 .023-.01.035-.015-.525 1.413-1.515 2.454-3.436 2.494a.276.276 0 0 0-.192-.07c-6.26.098-12.504.33-18.765.153-2.27-.064-4.938.045-5.916-2.918-.468-1.419-.202-3.391-.181-4.866.039-2.884.327-5.837.086-8.718.057-.021.104-.063.096-.142-.607-5.47 22.308-3.368 26.44-3.292.602.484 1.214.96 1.713 1.55-2.696-.2-5.463-.059-8.141.223-.063.006-.065.105 0 .102 2.78-.153 5.533-.113 8.31-.103.066.086.138.166.198.258.574.886.787 1.878.901 2.913l-.063.838zm.535-2.098c-.214-1.688-1.376-3.395-2.942-3.834.044-.117.01-.263-.138-.289-6.25-1.084-12.987-.75-19.298-.42-2.378.125-8.8-.153-7.922 3.86-.721 3.699-.554 7.755-.484 11.503.04 2.22.314 4.412 2.492 5.456 2.783 1.335 6.81.714 9.762.727 4.341.019 8.704.003 13.039-.268.02.052.038.096.069.164.04.089.176.011.13-.077-.016-.033-.037-.062-.055-.094l.133-.007a.296.296 0 0 0 .224-.118c1.992.223 3.532-.758 4.212-2.759.612-1.8.428-4.145.537-6.006.149-2.529.278-5.06.389-7.593.005-.13-.06-.209-.148-.245z"/><path id="7z0yb" d="M913.6 1291.502c.041-1.541.096-3.082.135-4.624.033-1.247-.253-3.032.018-4.275.651-.003 2.162.98 2.628 1.21.62.303 1.237.61 1.85.923 1.217.621 2.415 1.276 3.624 1.91-2.745 1.633-5.442 3.327-8.255 4.856zm9.234-5.086a111.212 111.212 0 0 0-6.078-3.228c-.787-.388-2.457-1.594-3.354-1.048-.137.083-.146.25-.078.365-.434.494-.226 1.676-.24 2.155-.067 2.34-.053 4.682-.084 7.023-.003.24.24.322.418.252a.197.197 0 0 0 .215.053c3.213-1.092 6.139-3.181 8.984-4.966.325.04.554-.413.217-.606z"/><path id="7z0yc" d="M930.905 1295.614c-6.949.103-13.904.36-20.848.644-.076.004-.076.13 0 .128 6.947-.117 13.905-.261 20.848-.56.126-.005.127-.214 0-.212z"/><path id="7z0yd" d="M931.906 1289.976a92.023 92.023 0 0 0-8.857-.086c-.065.002-.065.105 0 .105 2.956-.037 5.904.033 8.857.182.126.006.125-.193 0-.2z"/><path id="7z0ye" d="M931.925 1285.006c-2.945-.231-5.926-.192-8.876-.142-.065.001-.065.109 0 .109 2.96.017 5.917.171 8.876.201.101.002.099-.16 0-.168z"/><path id="7z0yf" d="M930.927 1281.158c-3.628-.705-7.26-.703-10.898-.084-.045.007-.035.098.01.092 3.644-.543 7.206-.443 10.835.213.126.023.181-.196.053-.22z"/></defs><g><g transform="translate(-902 -1276)"><g><use fill="#eb1d1d" xlink:href="#7z0ya"/></g><g><use fill="#eb1d1d" xlink:href="#7z0yb"/></g><g><use fill="#eb1d1d" xlink:href="#7z0yc"/></g><g><use fill="#eb1d1d" xlink:href="#7z0yd"/></g><g><use fill="#eb1d1d" xlink:href="#7z0ye"/></g><g><use fill="#eb1d1d" xlink:href="#7z0yf"/></g></g></g></svg>