<svg width="90" height="90" viewBox="0 0 90 90" fill="none" xmlns="http://www.w3.org/2000/svg">
<path d="M61.7198 50.7442L49.5007 43.2362C49.3518 43.1446 49.1806 43.0825 49.0078 43.0555L45.1823 42.3805C44.4746 42.2553 43.7795 42.7422 43.6547 43.4499C43.5299 44.1576 44.0163 44.8527 44.724 44.9775L48.334 45.6145L60.3394 52.9912C60.9254 53.3513 61.7293 53.1764 62.1183 52.6104C62.5356 52.0029 62.3471 51.13 61.7198 50.7442Z" fill="white"/>
<path d="M89.5628 51.1668C89.0654 50.6347 88.2311 50.6066 87.699 51.1037L82.3537 56.0994L57.8607 31.9326L89.501 2.28045C90.0322 1.78246 90.0592 0.948027 89.5614 0.416816C89.0636 -0.114395 88.229 -0.141465 87.6978 0.356347L55.057 30.9462C54.5187 31.4505 54.5075 32.3287 55.0325 32.8469L57.199 34.9842L56.5075 35.5949L42.0265 34.3479C41.8031 34.3289 41.5709 34.3674 41.367 34.4616L29.8932 39.6872C29.8598 39.6786 29.8264 39.6702 29.7918 39.664L23.1919 38.4993L23.7255 37.1351C23.9894 36.4604 23.6598 35.6993 22.9873 35.4305L1.8907 26.992C1.2143 26.7211 0.447186 27.0503 0.176834 27.7265C-0.0936931 28.4026 0.235194 29.1701 0.911424 29.4404L20.7928 37.3931L9.07664 67.3337L1.84113 64.771C1.15453 64.5281 0.401131 64.8872 0.158026 65.5738C-0.0850798 66.2603 0.274393 67.0138 0.960819 67.2569L9.39937 70.2456C10.0617 70.4802 10.8116 70.1369 11.0674 69.483L13.0254 64.4792L18.1559 67.3543L17.5901 68.2715C15.9868 70.8701 16.7962 74.2887 19.395 75.8922C20.7693 76.7402 22.4752 76.9413 24.0108 76.4441C24.2571 78.0445 25.1975 79.4725 26.5765 80.3233C27.9508 81.1712 29.6566 81.3723 31.1924 80.8752C31.4388 82.4756 32.3789 83.9034 33.7579 84.7544C35.1364 85.605 36.8334 85.8052 38.3741 85.3079C38.6209 86.9075 39.5608 88.3349 40.9395 89.1855C42.9432 90.4217 45.5954 90.237 47.4015 88.7232C47.8568 88.3415 48.2486 87.8861 48.5605 87.3806L49.4599 85.923L50.2005 86.3779C52.2069 87.6106 54.8583 87.4208 56.6617 85.9036C57.1163 85.5211 57.5072 85.065 57.8181 84.5589C58.4362 83.5529 58.692 82.4255 58.6245 81.3279C59.0432 81.4286 59.4717 81.4827 59.9041 81.4827C61.8191 81.4827 63.6305 80.4729 64.6327 78.842C65.2363 77.8594 65.5121 76.7391 65.4421 75.6115C65.8598 75.7117 66.2875 75.7655 66.7185 75.7655C68.6334 75.7655 70.445 74.7556 71.447 73.1247C72.0512 72.1414 72.3268 71.0204 72.2563 69.8919C72.6785 69.9924 73.1072 70.045 73.534 70.045C75.3963 70.045 77.2172 69.1074 78.2615 67.4078C79.8601 64.806 79.0441 61.389 76.4424 59.7905L75.5388 59.2353L78.5691 56.0692L81.4036 58.8658C81.9007 59.3561 82.72 59.367 83.23 58.8906L89.5003 53.0306C90.032 52.5333 90.0601 51.6989 89.5628 51.1668ZM24.7716 72.7025C23.9316 74.0635 22.1409 74.4875 20.7796 73.648C19.4184 72.8081 18.9944 71.0174 19.8341 69.6562L27.2194 57.6871C28.0436 56.3511 29.8123 55.9143 31.1629 56.7122C32.5603 57.5383 32.946 59.4542 32.107 60.8142L24.7716 72.7025ZM31.9528 77.1336C31.1131 78.4946 29.3222 78.9188 27.9612 78.0791C26.6164 77.2492 26.1846 75.4341 27.0156 74.0873L32.9237 64.5119C33.7479 63.1762 35.5166 62.7392 36.8671 63.5371C38.2646 64.3632 38.6503 66.2791 37.8111 67.6391L31.9528 77.1336ZM39.1349 81.5647C38.7278 82.224 38.0883 82.6856 37.3345 82.8642C36.5803 83.043 35.8021 82.9169 35.1427 82.5102C33.7982 81.6803 33.3663 79.865 34.1974 78.5184L38.6285 71.3368C39.4527 70.0009 41.2216 69.5641 42.5719 70.3619C43.9694 71.1881 44.3551 73.104 43.5161 74.464L39.1349 81.5647ZM49.2205 81.2892L46.3163 85.9959C45.4864 87.3406 43.6713 87.7722 42.3243 86.9413C40.9797 86.1116 40.548 84.2961 41.3789 82.9495L44.3329 78.1619C45.1572 76.8263 46.926 76.3888 48.2764 77.1872C49.6739 78.0132 50.0595 79.9292 49.2205 81.2892ZM73.24 57.8228L66.7041 53.8067C66.098 53.4342 65.2628 53.6337 64.8905 54.2398C64.5181 54.8459 64.7176 55.681 65.3237 56.0533L75.0614 62.0368C76.4241 62.8742 76.8516 64.664 76.0143 66.0268C75.1769 67.3895 73.3869 67.817 72.0241 66.9797L61.5804 60.5623C60.9601 60.1809 60.1479 60.3751 59.7669 60.9954C59.3858 61.6158 59.5797 62.4279 60.2 62.809L68.2473 67.7537C69.5936 68.5809 70.0286 70.3955 69.2002 71.7438C68.3729 73.0901 66.5583 73.5249 65.2101 72.6967L57.9173 68.2155C57.2968 67.8342 56.4848 68.0283 56.1038 68.6486C55.7227 69.2689 55.9165 70.081 56.5369 70.4621L61.4331 73.4706C62.7792 74.298 63.2145 76.1123 62.386 77.4607C61.5588 78.8068 59.7442 79.2421 58.3959 78.4136C58.3959 78.4136 54.09 75.7704 54.0498 75.751C53.4477 75.4603 52.7115 75.6672 52.3543 76.2487C51.9732 76.869 52.1671 77.6811 52.7875 78.0622L54.6189 79.1876C55.9816 80.025 56.4089 81.8148 55.5717 83.1776C54.7444 84.5239 52.9298 84.9588 51.5816 84.1305L50.8454 83.6781L51.4654 82.6731C52.258 81.3885 52.5039 79.8065 52.1401 78.3327C51.7811 76.8783 50.8857 75.6651 49.6192 74.9164C48.6309 74.3325 47.5255 74.0959 46.449 74.1685C46.6511 73.3001 46.6522 72.385 46.4356 71.5077C46.0767 70.0533 45.1812 68.84 43.9147 68.0914C42.9265 67.5072 41.821 67.2707 40.7445 67.3432C41.2882 65.0075 40.2873 62.4943 38.2103 61.2663C37.222 60.6824 36.1165 60.4458 35.0401 60.5182C35.5838 58.1824 34.5829 55.6693 32.5058 54.4412C29.9273 52.9171 26.5496 53.7518 24.9764 56.3014L19.543 65.1073L13.9957 61.9998L22.2114 41.0042L26.6846 41.7936C25.4123 43.3739 25.0546 45.5988 25.9511 47.5677C26.8789 49.6046 28.8944 50.81 30.9992 50.8098C31.7658 50.8098 32.5443 50.6498 33.2863 50.312L41.008 46.7949C41.6619 46.4972 41.9593 45.7025 41.6614 45.0486C41.3636 44.3948 40.5689 44.0971 39.915 44.3952L32.1931 47.912C30.7378 48.5751 29.0139 47.9301 28.3509 46.4745C27.688 45.0188 28.3328 43.2953 29.7884 42.6323L42.1448 37.0046L56.8433 38.2704C56.8811 38.2738 56.9189 38.2754 56.9565 38.2754C57.2764 38.2754 57.587 38.1588 57.829 37.9454L59.0803 36.8406L76.6911 54.2164L73.24 57.8228Z" fill="white"/>
</svg>
